<svg width="40" height="40" viewBox="0 0 40 40" fill="none" xmlns="http://www.w3.org/2000/svg">
<circle cx="20" cy="20" r="20" fill="black"/>
<path d="M17.2371 28.9999C14.2605 28.9828 11.7983 22.9065 11.7983 19.812C11.7983 14.7572 15.5903 13.6506 17.0517 13.6506C17.7103 13.6506 18.4136 13.9092 19.0338 14.1381C19.4676 14.2977 19.9162 14.4625 20.1657 14.4625C20.315 14.4625 20.6669 14.3223 20.9776 14.1993C21.6403 13.9355 22.4648 13.6077 23.4249 13.6077C23.4267 13.6077 23.429 13.6077 23.4306 13.6077C24.1476 13.6077 26.3214 13.765 27.6283 15.7277L27.9345 16.1877L27.4939 16.5202C26.8645 16.9951 25.716 17.8614 25.716 19.5775C25.716 21.6099 27.0167 22.3916 27.6415 22.7675C27.9173 22.9334 28.2028 23.1045 28.2028 23.4788C28.2028 23.7231 26.2528 28.9696 23.4209 28.9696C22.728 28.9696 22.2382 28.7613 21.8062 28.5777C21.369 28.3917 20.9919 28.2315 20.3688 28.2315C20.0529 28.2315 19.6535 28.3808 19.2306 28.5393C18.6528 28.755 17.9987 28.9999 17.2566 28.9999H17.2371Z" fill="white"/>
<path d="M23.7247 9C23.7984 11.6592 21.8967 13.5041 19.9971 13.3884C19.6841 11.2662 21.8964 9 23.7247 9Z" fill="white"/>
</svg>
