<svg width="136" height="40" viewBox="0 0 136 40" fill="none" xmlns="http://www.w3.org/2000/svg">
<rect x="36" width="4" height="4" rx="1" fill="#D5DFE9"/>
<rect x="24" width="4" height="4" rx="1" fill="#D5DFE9"/>
<rect x="12" width="4" height="4" rx="1" fill="#D5DFE9"/>
<rect width="4" height="4" rx="1" fill="#D5DFE9"/>
<rect x="84" width="4" height="4" rx="1" fill="#D5DFE9"/>
<rect x="72" width="4" height="4" rx="1" fill="#D5DFE9"/>
<rect x="60" width="4" height="4" rx="1" fill="#D5DFE9"/>
<rect x="48" width="4" height="4" rx="1" fill="#D5DFE9"/>
<rect x="132" width="4" height="4" rx="1" fill="#D5DFE9"/>
<rect x="120" width="4" height="4" rx="1" fill="#D5DFE9"/>
<rect x="108" width="4" height="4" rx="1" fill="#D5DFE9"/>
<rect x="96" width="4" height="4" rx="1" fill="#D5DFE9"/>
<rect x="36" y="12" width="4" height="4" rx="1" fill="#D5DFE9"/>
<rect x="24" y="12" width="4" height="4" rx="1" fill="#D5DFE9"/>
<rect x="12" y="12" width="4" height="4" rx="1" fill="#D5DFE9"/>
<rect y="12" width="4" height="4" rx="1" fill="#D5DFE9"/>
<rect x="84" y="12" width="4" height="4" rx="1" fill="#D5DFE9"/>
<rect x="72" y="12" width="4" height="4" rx="1" fill="#D5DFE9"/>
<rect x="60" y="12" width="4" height="4" rx="1" fill="#D5DFE9"/>
<rect x="48" y="12" width="4" height="4" rx="1" fill="#D5DFE9"/>
<rect x="132" y="12" width="4" height="4" rx="1" fill="#D5DFE9"/>
<rect x="120" y="12" width="4" height="4" rx="1" fill="#D5DFE9"/>
<rect x="108" y="12" width="4" height="4" rx="1" fill="#D5DFE9"/>
<rect x="96" y="12" width="4" height="4" rx="1" fill="#D5DFE9"/>
<rect x="36" y="24" width="4" height="4" rx="1" fill="#D5DFE9"/>
<rect x="24" y="24" width="4" height="4" rx="1" fill="#D5DFE9"/>
<rect x="12" y="24" width="4" height="4" rx="1" fill="#D5DFE9"/>
<rect y="24" width="4" height="4" rx="1" fill="#D5DFE9"/>
<rect x="84" y="24" width="4" height="4" rx="1" fill="#D5DFE9"/>
<rect x="72" y="24" width="4" height="4" rx="1" fill="#D5DFE9"/>
<rect x="60" y="24" width="4" height="4" rx="1" fill="#D5DFE9"/>
<rect x="48" y="24" width="4" height="4" rx="1" fill="#D5DFE9"/>
<rect x="132" y="24" width="4" height="4" rx="1" fill="#D5DFE9"/>
<rect x="120" y="24" width="4" height="4" rx="1" fill="#D5DFE9"/>
<rect x="108" y="24" width="4" height="4" rx="1" fill="#D5DFE9"/>
<rect x="96" y="24" width="4" height="4" rx="1" fill="#D5DFE9"/>
<rect x="36" y="36" width="4" height="4" rx="1" fill="#D5DFE9"/>
<rect x="24" y="36" width="4" height="4" rx="1" fill="#D5DFE9"/>
<rect x="12" y="36" width="4" height="4" rx="1" fill="#D5DFE9"/>
<rect y="36" width="4" height="4" rx="1" fill="#D5DFE9"/>
<rect x="84" y="36" width="4" height="4" rx="1" fill="#D5DFE9"/>
<rect x="72" y="36" width="4" height="4" rx="1" fill="#D5DFE9"/>
<rect x="60" y="36" width="4" height="4" rx="1" fill="#D5DFE9"/>
<rect x="48" y="36" width="4" height="4" rx="1" fill="#D5DFE9"/>
<rect x="132" y="36" width="4" height="4" rx="1" fill="#D5DFE9"/>
<rect x="120" y="36" width="4" height="4" rx="1" fill="#D5DFE9"/>
<rect x="108" y="36" width="4" height="4" rx="1" fill="#D5DFE9"/>
<rect x="96" y="36" width="4" height="4" rx="1" fill="#D5DFE9"/>
</svg>
