<svg width="160" height="40" viewBox="0 0 160 40" fill="none" xmlns="http://www.w3.org/2000/svg">
<rect width="4" height="4" rx="1" transform="matrix(-1 0 0 1 160 36)" fill="#8E4FF5"/>
<rect width="4" height="4" rx="1" transform="matrix(-1 0 0 1 148 36)" fill="#8E4FF5"/>
<rect width="4" height="4" rx="1" transform="matrix(-1 0 0 1 136 36)" fill="#8E4FF5"/>
<rect width="4" height="4" rx="1" transform="matrix(-1 0 0 1 124 36)" fill="#8E4FF5"/>
<rect width="4" height="4" rx="1" transform="matrix(-1 0 0 1 112 36)" fill="#8E4FF5"/>
<rect width="4" height="4" rx="1" transform="matrix(-1 0 0 1 100 36)" fill="#8E4FF5"/>
<rect width="4" height="4" rx="1" transform="matrix(-1 0 0 1 88 36)" fill="#8E4FF5"/>
<rect width="4" height="4" rx="1" transform="matrix(-1 0 0 1 160 0)" fill="#8E4FF5"/>
<rect width="4" height="4" rx="1" transform="matrix(-1 0 0 1 148 0)" fill="#8E4FF5"/>
<rect width="4" height="4" rx="1" transform="matrix(-1 0 0 1 136 0)" fill="#8E4FF5"/>
<rect width="4" height="4" rx="1" transform="matrix(-1 0 0 1 124 0)" fill="#8E4FF5"/>
<rect width="4" height="4" rx="1" transform="matrix(-1 0 0 1 112 0)" fill="#8E4FF5"/>
<rect width="4" height="4" rx="1" transform="matrix(-1 0 0 1 100 0)" fill="#8E4FF5"/>
<rect width="4" height="4" rx="1" transform="matrix(-1 0 0 1 88 0)" fill="#8E4FF5"/>
<rect width="4" height="4" rx="1" transform="matrix(-1 0 0 1 76 0)" fill="#8E4FF5"/>
<rect width="4" height="4" rx="1" transform="matrix(-1 0 0 1 64 0)" fill="#8E4FF5"/>
<rect width="4" height="4" rx="1" transform="matrix(-1 0 0 1 52 0)" fill="#8E4FF5"/>
<rect width="4" height="4" rx="1" transform="matrix(-1 0 0 1 40 0)" fill="#8E4FF5"/>
<rect width="4" height="4" rx="1" transform="matrix(-1 0 0 1 28 0)" fill="#8E4FF5"/>
<rect width="4" height="4" rx="1" transform="matrix(-1 0 0 1 16 0)" fill="#8E4FF5"/>
<rect width="4" height="4" rx="1" transform="matrix(-1 0 0 1 4 0)" fill="#8E4FF5"/>
<rect width="4" height="4" rx="1" transform="matrix(-1 0 0 1 160 12)" fill="#8E4FF5"/>
<rect width="4" height="4" rx="1" transform="matrix(-1 0 0 1 148 12)" fill="#8E4FF5"/>
<rect width="4" height="4" rx="1" transform="matrix(-1 0 0 1 136 12)" fill="#8E4FF5"/>
<rect width="4" height="4" rx="1" transform="matrix(-1 0 0 1 124 12)" fill="#8E4FF5"/>
<rect width="4" height="4" rx="1" transform="matrix(-1 0 0 1 112 12)" fill="#8E4FF5"/>
<rect width="4" height="4" rx="1" transform="matrix(-1 0 0 1 100 12)" fill="#8E4FF5"/>
<rect width="4" height="4" rx="1" transform="matrix(-1 0 0 1 88 12)" fill="#8E4FF5"/>
<rect width="4" height="4" rx="1" transform="matrix(-1 0 0 1 76 12)" fill="#8E4FF5"/>
<rect width="4" height="4" rx="1" transform="matrix(-1 0 0 1 64 12)" fill="#8E4FF5"/>
<rect width="4" height="4" rx="1" transform="matrix(-1 0 0 1 52 12)" fill="#8E4FF5"/>
<rect width="4" height="4" rx="1" transform="matrix(-1 0 0 1 40 12)" fill="#8E4FF5"/>
<rect width="4" height="4" rx="1" transform="matrix(-1 0 0 1 28 12)" fill="#8E4FF5"/>
<rect width="4" height="4" rx="1" transform="matrix(-1 0 0 1 16 12)" fill="#8E4FF5"/>
<rect width="4" height="4" rx="1" transform="matrix(-1 0 0 1 4 12)" fill="#8E4FF5"/>
<rect width="4" height="4" rx="1" transform="matrix(-1 0 0 1 160 24)" fill="#8E4FF5"/>
<rect width="4" height="4" rx="1" transform="matrix(-1 0 0 1 148 24)" fill="#8E4FF5"/>
<rect width="4" height="4" rx="1" transform="matrix(-1 0 0 1 136 24)" fill="#8E4FF5"/>
<rect width="4" height="4" rx="1" transform="matrix(-1 0 0 1 124 24)" fill="#8E4FF5"/>
<rect width="4" height="4" rx="1" transform="matrix(-1 0 0 1 112 24)" fill="#8E4FF5"/>
<rect width="4" height="4" rx="1" transform="matrix(-1 0 0 1 100 24)" fill="#8E4FF5"/>
<rect width="4" height="4" rx="1" transform="matrix(-1 0 0 1 88 24)" fill="#8E4FF5"/>
<rect width="4" height="4" rx="1" transform="matrix(-1 0 0 1 76 24)" fill="#8E4FF5"/>
<rect width="4" height="4" rx="1" transform="matrix(-1 0 0 1 64 24)" fill="#8E4FF5"/>
<rect width="4" height="4" rx="1" transform="matrix(-1 0 0 1 52 24)" fill="#8E4FF5"/>
<rect width="4" height="4" rx="1" transform="matrix(-1 0 0 1 40 24)" fill="#8E4FF5"/>
<rect width="4" height="4" rx="1" transform="matrix(-1 0 0 1 28 24)" fill="#8E4FF5"/>
<rect width="4" height="4" rx="1" transform="matrix(-1 0 0 1 16 24)" fill="#8E4FF5"/>
<rect width="4" height="4" rx="1" transform="matrix(-1 0 0 1 4 24)" fill="#8E4FF5"/>
<rect width="4" height="4" rx="1" transform="matrix(-1 0 0 1 76 36)" fill="#8E4FF5"/>
<rect width="4" height="4" rx="1" transform="matrix(-1 0 0 1 64 36)" fill="#8E4FF5"/>
<rect width="4" height="4" rx="1" transform="matrix(-1 0 0 1 52 36)" fill="#8E4FF5"/>
<rect width="4" height="4" rx="1" transform="matrix(-1 0 0 1 40 36)" fill="#8E4FF5"/>
<rect width="4" height="4" rx="1" transform="matrix(-1 0 0 1 28 36)" fill="#8E4FF5"/>
<rect width="4" height="4" rx="1" transform="matrix(-1 0 0 1 16 36)" fill="#8E4FF5"/>
<rect width="4" height="4" rx="1" transform="matrix(-1 0 0 1 4 36)" fill="#8E4FF5"/>
</svg>
