<svg width="288" height="344" viewBox="0 0 288 344" fill="none" xmlns="http://www.w3.org/2000/svg">
<rect width="288" height="344" rx="12" fill="#F1F4F7"/>
<rect x="32" y="32" width="224" height="64" rx="8" fill="white"/>
<circle cx="64" cy="64" r="12" fill="#FF4D00"/>
<rect x="67.1821" y="58.697" width="3" height="12" rx="1.5" transform="rotate(45 67.1821 58.697)" fill="white"/>
<rect x="69.3032" y="67.1822" width="3" height="12" rx="1.5" transform="rotate(135 69.3032 67.1822)" fill="white"/>
<path d="M89.632 69C89.5253 69 89.4347 68.9627 89.36 68.888C89.2853 68.8133 89.248 68.7227 89.248 68.616V58.2C89.248 58.0827 89.28 57.9867 89.344 57.912C89.4187 57.8373 89.5147 57.8 89.632 57.8H90.864C90.992 57.8 91.088 57.8267 91.152 57.88C91.216 57.9227 91.2747 57.9813 91.328 58.056L95.936 65.224V58.2C95.936 58.0827 95.968 57.9867 96.032 57.912C96.1067 57.8373 96.2027 57.8 96.32 57.8H97.664C97.7813 57.8 97.8773 57.8373 97.952 57.912C98.0267 57.9867 98.064 58.0827 98.064 58.2V68.6C98.064 68.7173 98.0267 68.8133 97.952 68.888C97.8773 68.9627 97.7867 69 97.68 69H96.432C96.2507 69 96.096 68.9147 95.968 68.744L91.376 61.736V68.616C91.376 68.7333 91.3387 68.8293 91.264 68.904C91.1893 68.968 91.0933 69 90.976 69H89.632ZM104.049 69.16C102.801 69.16 101.835 68.84 101.153 68.2C100.47 67.5493 100.102 66.664 100.049 65.544L100.033 64.84L100.049 64.136C100.102 63.0267 100.475 62.1467 101.169 61.496C101.862 60.8453 102.822 60.52 104.049 60.52C105.275 60.52 106.235 60.8453 106.929 61.496C107.622 62.1467 107.995 63.0267 108.049 64.136C108.059 64.264 108.065 64.4987 108.065 64.84C108.065 65.1813 108.059 65.416 108.049 65.544C107.995 66.664 107.627 67.5493 106.945 68.2C106.262 68.84 105.297 69.16 104.049 69.16ZM104.049 67.576C104.614 67.576 105.051 67.4 105.361 67.048C105.67 66.6853 105.841 66.1573 105.873 65.464C105.883 65.3573 105.889 65.1493 105.889 64.84C105.889 64.5307 105.883 64.3227 105.873 64.216C105.841 63.5227 105.67 63 105.361 62.648C105.051 62.2853 104.614 62.104 104.049 62.104C103.483 62.104 103.046 62.2853 102.737 62.648C102.427 63 102.257 63.5227 102.225 64.216L102.209 64.84L102.225 65.464C102.257 66.1573 102.427 66.6853 102.737 67.048C103.046 67.4 103.483 67.576 104.049 67.576ZM116.941 69C115.97 69 115.24 68.7493 114.749 68.248C114.269 67.736 114.029 66.9893 114.029 66.008V62.376H112.765C112.658 62.376 112.568 62.3387 112.493 62.264C112.418 62.1787 112.381 62.0827 112.381 61.976V61.064C112.381 60.9573 112.418 60.8667 112.493 60.792C112.568 60.7173 112.658 60.68 112.765 60.68H114.029V58.024C114.029 57.9067 114.066 57.816 114.141 57.752C114.216 57.6773 114.306 57.64 114.413 57.64H115.709C115.826 57.64 115.917 57.6773 115.981 57.752C116.056 57.816 116.093 57.9067 116.093 58.024V60.68H118.093C118.21 60.68 118.301 60.7173 118.365 60.792C118.44 60.856 118.477 60.9467 118.477 61.064V61.976C118.477 62.0933 118.44 62.1893 118.365 62.264C118.29 62.3387 118.2 62.376 118.093 62.376H116.093V65.848C116.093 66.3067 116.173 66.6533 116.333 66.888C116.493 67.1227 116.76 67.24 117.133 67.24H118.237C118.344 67.24 118.434 67.2773 118.509 67.352C118.584 67.4267 118.621 67.5173 118.621 67.624V68.616C118.621 68.7227 118.584 68.8133 118.509 68.888C118.445 68.9627 118.354 69 118.237 69H116.941ZM120.424 69C120.318 69 120.227 68.9627 120.152 68.888C120.078 68.8133 120.04 68.7227 120.04 68.616V61.08C120.04 60.9733 120.078 60.8827 120.152 60.808C120.227 60.7227 120.318 60.68 120.424 60.68H121.72C121.838 60.68 121.934 60.7173 122.008 60.792C122.083 60.8667 122.12 60.9627 122.12 61.08V61.736C122.376 61.3947 122.696 61.1333 123.08 60.952C123.475 60.7707 123.923 60.68 124.424 60.68H125.08C125.198 60.68 125.288 60.7173 125.352 60.792C125.427 60.856 125.464 60.9467 125.464 61.064V62.216C125.464 62.3227 125.427 62.4133 125.352 62.488C125.288 62.5627 125.198 62.6 125.08 62.6H123.832C123.331 62.6 122.936 62.744 122.648 63.032C122.36 63.32 122.216 63.7147 122.216 64.216V68.616C122.216 68.7227 122.179 68.8133 122.104 68.888C122.03 68.9627 121.934 69 121.816 69H120.424ZM130.283 69.16C129.035 69.16 128.07 68.84 127.387 68.2C126.704 67.5493 126.336 66.664 126.283 65.544L126.267 64.84L126.283 64.136C126.336 63.0267 126.71 62.1467 127.403 61.496C128.096 60.8453 129.056 60.52 130.283 60.52C131.51 60.52 132.47 60.8453 133.163 61.496C133.856 62.1467 134.23 63.0267 134.283 64.136C134.294 64.264 134.299 64.4987 134.299 64.84C134.299 65.1813 134.294 65.416 134.283 65.544C134.23 66.664 133.862 67.5493 133.179 68.2C132.496 68.84 131.531 69.16 130.283 69.16ZM130.283 67.576C130.848 67.576 131.286 67.4 131.595 67.048C131.904 66.6853 132.075 66.1573 132.107 65.464C132.118 65.3573 132.123 65.1493 132.123 64.84C132.123 64.5307 132.118 64.3227 132.107 64.216C132.075 63.5227 131.904 63 131.595 62.648C131.286 62.2853 130.848 62.104 130.283 62.104C129.718 62.104 129.28 62.2853 128.971 62.648C128.662 63 128.491 63.5227 128.459 64.216L128.443 64.84L128.459 65.464C128.491 66.1573 128.662 66.6853 128.971 67.048C129.28 67.4 129.718 67.576 130.283 67.576ZM136.472 69C136.365 69 136.274 68.9627 136.2 68.888C136.125 68.8133 136.088 68.7227 136.088 68.616V58.024C136.088 57.9067 136.125 57.816 136.2 57.752C136.274 57.6773 136.365 57.64 136.472 57.64H137.8C137.917 57.64 138.008 57.6773 138.072 57.752C138.146 57.816 138.184 57.9067 138.184 58.024V68.616C138.184 68.7227 138.146 68.8133 138.072 68.888C138.008 68.9627 137.917 69 137.8 69H136.472ZM140.706 69C140.599 69 140.509 68.9627 140.434 68.888C140.359 68.8133 140.322 68.7227 140.322 68.616V58.024C140.322 57.9067 140.359 57.816 140.434 57.752C140.509 57.6773 140.599 57.64 140.706 57.64H142.034C142.151 57.64 142.242 57.6773 142.306 57.752C142.381 57.816 142.418 57.9067 142.418 58.024V68.616C142.418 68.7227 142.381 68.8133 142.306 68.888C142.242 68.9627 142.151 69 142.034 69H140.706ZM147.692 69.16C146.892 69.16 146.22 69.0427 145.676 68.808C145.132 68.5627 144.727 68.28 144.46 67.96C144.204 67.6293 144.076 67.3467 144.076 67.112C144.076 67.0053 144.114 66.92 144.188 66.856C144.263 66.792 144.348 66.76 144.444 66.76H145.708C145.804 66.76 145.884 66.7973 145.948 66.872C145.991 66.904 146.103 67 146.284 67.16C146.466 67.3307 146.679 67.464 146.924 67.56C147.17 67.656 147.442 67.704 147.74 67.704C148.167 67.704 148.519 67.6187 148.796 67.448C149.074 67.2773 149.212 67.0427 149.212 66.744C149.212 66.52 149.148 66.3387 149.02 66.2C148.903 66.0613 148.684 65.9387 148.364 65.832C148.044 65.7147 147.57 65.592 146.94 65.464C146.034 65.272 145.362 64.9787 144.924 64.584C144.498 64.1893 144.284 63.6667 144.284 63.016C144.284 62.5893 144.412 62.1893 144.668 61.816C144.924 61.432 145.303 61.1227 145.804 60.888C146.316 60.6427 146.924 60.52 147.628 60.52C148.343 60.52 148.962 60.6373 149.484 60.872C150.007 61.096 150.402 61.368 150.668 61.688C150.946 61.9973 151.084 62.2747 151.084 62.52C151.084 62.616 151.047 62.7013 150.972 62.776C150.908 62.84 150.828 62.872 150.732 62.872H149.548C149.463 62.872 149.372 62.8347 149.276 62.76C149.202 62.7067 149.084 62.6053 148.924 62.456C148.764 62.3067 148.578 62.1893 148.364 62.104C148.151 62.0187 147.9 61.976 147.612 61.976C147.218 61.976 146.908 62.0613 146.684 62.232C146.471 62.4027 146.364 62.6267 146.364 62.904C146.364 63.1067 146.418 63.272 146.524 63.4C146.631 63.528 146.839 63.6507 147.148 63.768C147.458 63.8853 147.922 64.0027 148.54 64.12C149.564 64.3227 150.295 64.6373 150.732 65.064C151.18 65.4907 151.404 66.0133 151.404 66.632C151.404 67.3787 151.079 67.9867 150.428 68.456C149.778 68.9253 148.866 69.16 147.692 69.16Z" fill="#1C1C1C" fill-opacity="0.87"/>
<rect x="32" y="224" width="224" height="88" rx="8" fill="white"/>
<path d="M89.632 261C89.5253 261 89.4347 260.963 89.36 260.888C89.2853 260.813 89.248 260.723 89.248 260.616V250.2C89.248 250.083 89.28 249.987 89.344 249.912C89.4187 249.837 89.5147 249.8 89.632 249.8H90.864C90.992 249.8 91.088 249.827 91.152 249.88C91.216 249.923 91.2747 249.981 91.328 250.056L95.936 257.224V250.2C95.936 250.083 95.968 249.987 96.032 249.912C96.1067 249.837 96.2027 249.8 96.32 249.8H97.664C97.7813 249.8 97.8773 249.837 97.952 249.912C98.0267 249.987 98.064 250.083 98.064 250.2V260.6C98.064 260.717 98.0267 260.813 97.952 260.888C97.8773 260.963 97.7867 261 97.68 261H96.432C96.2507 261 96.096 260.915 95.968 260.744L91.376 253.736V260.616C91.376 260.733 91.3387 260.829 91.264 260.904C91.1893 260.968 91.0933 261 90.976 261H89.632ZM104.049 261.16C102.801 261.16 101.835 260.84 101.153 260.2C100.47 259.549 100.102 258.664 100.049 257.544L100.033 256.84L100.049 256.136C100.102 255.027 100.475 254.147 101.169 253.496C101.862 252.845 102.822 252.52 104.049 252.52C105.275 252.52 106.235 252.845 106.929 253.496C107.622 254.147 107.995 255.027 108.049 256.136C108.059 256.264 108.065 256.499 108.065 256.84C108.065 257.181 108.059 257.416 108.049 257.544C107.995 258.664 107.627 259.549 106.945 260.2C106.262 260.84 105.297 261.16 104.049 261.16ZM104.049 259.576C104.614 259.576 105.051 259.4 105.361 259.048C105.67 258.685 105.841 258.157 105.873 257.464C105.883 257.357 105.889 257.149 105.889 256.84C105.889 256.531 105.883 256.323 105.873 256.216C105.841 255.523 105.67 255 105.361 254.648C105.051 254.285 104.614 254.104 104.049 254.104C103.483 254.104 103.046 254.285 102.737 254.648C102.427 255 102.257 255.523 102.225 256.216L102.209 256.84L102.225 257.464C102.257 258.157 102.427 258.685 102.737 259.048C103.046 259.4 103.483 259.576 104.049 259.576ZM116.646 261.16C115.846 261.16 115.174 261.043 114.63 260.808C114.086 260.563 113.68 260.28 113.414 259.96C113.158 259.629 113.03 259.347 113.03 259.112C113.03 259.005 113.067 258.92 113.142 258.856C113.216 258.792 113.302 258.76 113.398 258.76H114.662C114.758 258.76 114.838 258.797 114.902 258.872C114.944 258.904 115.056 259 115.238 259.16C115.419 259.331 115.632 259.464 115.878 259.56C116.123 259.656 116.395 259.704 116.694 259.704C117.12 259.704 117.472 259.619 117.75 259.448C118.027 259.277 118.166 259.043 118.166 258.744C118.166 258.52 118.102 258.339 117.974 258.2C117.856 258.061 117.638 257.939 117.318 257.832C116.998 257.715 116.523 257.592 115.894 257.464C114.987 257.272 114.315 256.979 113.878 256.584C113.451 256.189 113.238 255.667 113.238 255.016C113.238 254.589 113.366 254.189 113.622 253.816C113.878 253.432 114.256 253.123 114.758 252.888C115.27 252.643 115.878 252.52 116.582 252.52C117.296 252.52 117.915 252.637 118.438 252.872C118.96 253.096 119.355 253.368 119.622 253.688C119.899 253.997 120.038 254.275 120.038 254.52C120.038 254.616 120 254.701 119.926 254.776C119.862 254.84 119.782 254.872 119.686 254.872H118.502C118.416 254.872 118.326 254.835 118.23 254.76C118.155 254.707 118.038 254.605 117.878 254.456C117.718 254.307 117.531 254.189 117.318 254.104C117.104 254.019 116.854 253.976 116.566 253.976C116.171 253.976 115.862 254.061 115.638 254.232C115.424 254.403 115.318 254.627 115.318 254.904C115.318 255.107 115.371 255.272 115.478 255.4C115.584 255.528 115.792 255.651 116.102 255.768C116.411 255.885 116.875 256.003 117.494 256.12C118.518 256.323 119.248 256.637 119.686 257.064C120.134 257.491 120.358 258.013 120.358 258.632C120.358 259.379 120.032 259.987 119.382 260.456C118.731 260.925 117.819 261.16 116.646 261.16ZM122.409 261C122.302 261 122.212 260.963 122.137 260.888C122.062 260.813 122.025 260.723 122.025 260.616V250.024C122.025 249.907 122.062 249.816 122.137 249.752C122.212 249.677 122.302 249.64 122.409 249.64H123.833C123.95 249.64 124.041 249.677 124.105 249.752C124.18 249.816 124.217 249.907 124.217 250.024V253.672C124.857 252.904 125.721 252.52 126.809 252.52C127.79 252.52 128.574 252.845 129.161 253.496C129.748 254.136 130.041 255.011 130.041 256.12V260.616C130.041 260.723 130.004 260.813 129.929 260.888C129.865 260.963 129.774 261 129.657 261H128.217C128.11 261 128.02 260.963 127.945 260.888C127.87 260.813 127.833 260.723 127.833 260.616V256.216C127.833 255.587 127.678 255.101 127.369 254.76C127.07 254.408 126.633 254.232 126.057 254.232C125.492 254.232 125.044 254.408 124.713 254.76C124.382 255.112 124.217 255.597 124.217 256.216V260.616C124.217 260.723 124.18 260.813 124.105 260.888C124.041 260.963 123.95 261 123.833 261H122.409ZM134.488 261.16C133.944 261.16 133.442 261.053 132.984 260.84C132.536 260.616 132.178 260.317 131.912 259.944C131.656 259.571 131.528 259.16 131.528 258.712C131.528 257.987 131.821 257.4 132.408 256.952C132.994 256.504 133.8 256.2 134.824 256.04L137.016 255.72V255.384C137.016 254.915 136.898 254.563 136.664 254.328C136.429 254.093 136.05 253.976 135.528 253.976C135.176 253.976 134.888 254.045 134.664 254.184C134.45 254.312 134.28 254.44 134.152 254.568C134.024 254.707 133.938 254.797 133.896 254.84C133.853 254.968 133.773 255.032 133.656 255.032H132.424C132.328 255.032 132.242 255 132.168 254.936C132.104 254.872 132.072 254.787 132.072 254.68C132.082 254.413 132.21 254.109 132.456 253.768C132.712 253.427 133.101 253.133 133.624 252.888C134.146 252.643 134.786 252.52 135.544 252.52C136.802 252.52 137.72 252.803 138.296 253.368C138.872 253.933 139.16 254.675 139.16 255.592V260.616C139.16 260.723 139.122 260.813 139.048 260.888C138.984 260.963 138.893 261 138.776 261H137.48C137.373 261 137.282 260.963 137.208 260.888C137.133 260.813 137.096 260.723 137.096 260.616V259.992C136.861 260.333 136.525 260.616 136.088 260.84C135.661 261.053 135.128 261.16 134.488 261.16ZM135.032 259.64C135.618 259.64 136.098 259.448 136.472 259.064C136.845 258.68 137.032 258.12 137.032 257.384V257.048L135.432 257.304C134.813 257.4 134.344 257.555 134.024 257.768C133.714 257.981 133.56 258.243 133.56 258.552C133.56 258.893 133.704 259.16 133.992 259.352C134.28 259.544 134.626 259.64 135.032 259.64ZM144.3 261.16C143.223 261.16 142.396 260.813 141.82 260.12C141.244 259.427 140.935 258.504 140.892 257.352L140.876 256.824L140.892 256.312C140.924 255.192 141.228 254.28 141.804 253.576C142.391 252.872 143.223 252.52 144.3 252.52C145.335 252.52 146.156 252.872 146.764 253.576V250.024C146.764 249.907 146.802 249.816 146.876 249.752C146.951 249.677 147.042 249.64 147.148 249.64H148.508C148.626 249.64 148.716 249.677 148.78 249.752C148.855 249.816 148.892 249.907 148.892 250.024V260.616C148.892 260.723 148.855 260.813 148.78 260.888C148.716 260.963 148.626 261 148.508 261H147.244C147.138 261 147.047 260.963 146.972 260.888C146.898 260.813 146.86 260.723 146.86 260.616V260.024C146.252 260.781 145.399 261.16 144.3 261.16ZM144.892 259.448C145.511 259.448 145.97 259.251 146.268 258.856C146.567 258.461 146.732 257.976 146.764 257.4C146.775 257.272 146.78 257.064 146.78 256.776C146.78 256.499 146.775 256.296 146.764 256.168C146.743 255.635 146.572 255.181 146.252 254.808C145.943 254.424 145.49 254.232 144.892 254.232C143.74 254.232 143.127 254.941 143.052 256.36L143.036 256.84L143.052 257.32C143.127 258.739 143.74 259.448 144.892 259.448ZM152.529 264.04C152.443 264.04 152.369 264.008 152.305 263.944C152.241 263.88 152.209 263.805 152.209 263.72C152.209 263.624 152.23 263.539 152.273 263.464L153.521 260.504L150.449 253.256C150.406 253.16 150.385 253.085 150.385 253.032C150.395 252.936 150.433 252.856 150.497 252.792C150.561 252.717 150.641 252.68 150.737 252.68H152.033C152.235 252.68 152.379 252.781 152.465 252.984L154.593 258.216L156.785 252.984C156.87 252.781 157.014 252.68 157.217 252.68H158.497C158.582 252.68 158.657 252.712 158.721 252.776C158.795 252.84 158.833 252.915 158.833 253C158.833 253.075 158.811 253.16 158.769 253.256L154.241 263.736C154.145 263.939 153.995 264.04 153.793 264.04H152.529ZM89.44 285C89.3333 285 89.2427 284.963 89.168 284.888C89.0933 284.813 89.056 284.723 89.056 284.616V277.08C89.056 276.973 89.0933 276.883 89.168 276.808C89.2427 276.723 89.3333 276.68 89.44 276.68H90.736C90.8533 276.68 90.9493 276.717 91.024 276.792C91.0987 276.867 91.136 276.963 91.136 277.08V277.736C91.392 277.395 91.712 277.133 92.096 276.952C92.4907 276.771 92.9387 276.68 93.44 276.68H94.096C94.2133 276.68 94.304 276.717 94.368 276.792C94.4427 276.856 94.48 276.947 94.48 277.064V278.216C94.48 278.323 94.4427 278.413 94.368 278.488C94.304 278.563 94.2133 278.6 94.096 278.6H92.848C92.3467 278.6 91.952 278.744 91.664 279.032C91.376 279.32 91.232 279.715 91.232 280.216V284.616C91.232 284.723 91.1947 284.813 91.12 284.888C91.0453 284.963 90.9493 285 90.832 285H89.44ZM99.2025 285.16C98.0185 285.16 97.0745 284.819 96.3705 284.136C95.6772 283.443 95.3092 282.472 95.2665 281.224L95.2505 280.824L95.2665 280.424C95.3198 279.208 95.6932 278.253 96.3865 277.56C97.0905 276.867 98.0292 276.52 99.2025 276.52C100.461 276.52 101.432 276.904 102.115 277.672C102.808 278.44 103.155 279.464 103.155 280.744V281.08C103.155 281.187 103.117 281.277 103.043 281.352C102.968 281.427 102.872 281.464 102.755 281.464H97.4425V281.592C97.4638 282.179 97.6238 282.675 97.9225 283.08C98.2318 283.475 98.6532 283.672 99.1865 283.672C99.8158 283.672 100.323 283.427 100.707 282.936C100.803 282.819 100.877 282.744 100.931 282.712C100.995 282.68 101.085 282.664 101.203 282.664H102.579C102.675 282.664 102.755 282.696 102.819 282.76C102.893 282.813 102.931 282.883 102.931 282.968C102.931 283.224 102.776 283.528 102.467 283.88C102.168 284.221 101.736 284.52 101.171 284.776C100.605 285.032 99.9492 285.16 99.2025 285.16ZM100.979 280.12V280.072C100.979 279.443 100.819 278.936 100.499 278.552C100.189 278.168 99.7572 277.976 99.2025 277.976C98.6478 277.976 98.2158 278.168 97.9065 278.552C97.5972 278.936 97.4425 279.443 97.4425 280.072V280.12H100.979ZM108.453 285.16C107.28 285.16 106.341 284.835 105.637 284.184C104.944 283.533 104.576 282.632 104.533 281.48L104.517 280.84L104.533 280.2C104.576 279.048 104.944 278.147 105.637 277.496C106.341 276.845 107.28 276.52 108.453 276.52C109.285 276.52 109.989 276.669 110.565 276.968C111.152 277.267 111.584 277.635 111.861 278.072C112.149 278.499 112.304 278.904 112.325 279.288C112.336 279.395 112.298 279.485 112.213 279.56C112.138 279.635 112.048 279.672 111.941 279.672H110.533C110.426 279.672 110.341 279.651 110.277 279.608C110.224 279.555 110.17 279.469 110.117 279.352C109.957 278.936 109.744 278.637 109.477 278.456C109.221 278.275 108.89 278.184 108.485 278.184C107.941 278.184 107.514 278.36 107.205 278.712C106.896 279.053 106.73 279.576 106.709 280.28L106.693 280.872L106.709 281.4C106.752 282.797 107.344 283.496 108.485 283.496C108.901 283.496 109.237 283.405 109.493 283.224C109.749 283.043 109.957 282.744 110.117 282.328C110.17 282.211 110.224 282.131 110.277 282.088C110.341 282.035 110.426 282.008 110.533 282.008H111.941C112.048 282.008 112.138 282.045 112.213 282.12C112.298 282.195 112.336 282.285 112.325 282.392C112.304 282.765 112.154 283.165 111.877 283.592C111.6 284.019 111.173 284.387 110.597 284.696C110.021 285.005 109.306 285.16 108.453 285.16ZM117.674 285.16C116.426 285.16 115.46 284.84 114.778 284.2C114.095 283.549 113.727 282.664 113.674 281.544L113.658 280.84L113.674 280.136C113.727 279.027 114.1 278.147 114.794 277.496C115.487 276.845 116.447 276.52 117.674 276.52C118.9 276.52 119.86 276.845 120.554 277.496C121.247 278.147 121.62 279.027 121.674 280.136C121.684 280.264 121.69 280.499 121.69 280.84C121.69 281.181 121.684 281.416 121.674 281.544C121.62 282.664 121.252 283.549 120.57 284.2C119.887 284.84 118.922 285.16 117.674 285.16ZM117.674 283.576C118.239 283.576 118.676 283.4 118.986 283.048C119.295 282.685 119.466 282.157 119.498 281.464C119.508 281.357 119.514 281.149 119.514 280.84C119.514 280.531 119.508 280.323 119.498 280.216C119.466 279.523 119.295 279 118.986 278.648C118.676 278.285 118.239 278.104 117.674 278.104C117.108 278.104 116.671 278.285 116.362 278.648C116.052 279 115.882 279.523 115.85 280.216L115.834 280.84L115.85 281.464C115.882 282.157 116.052 282.685 116.362 283.048C116.671 283.4 117.108 283.576 117.674 283.576ZM123.846 285C123.74 285 123.649 284.963 123.574 284.888C123.5 284.813 123.462 284.723 123.462 284.616V277.064C123.462 276.957 123.5 276.867 123.574 276.792C123.649 276.717 123.74 276.68 123.846 276.68H125.094C125.201 276.68 125.292 276.717 125.366 276.792C125.441 276.867 125.478 276.957 125.478 277.064V277.608C126.033 276.883 126.806 276.52 127.798 276.52C128.982 276.52 129.809 276.995 130.278 277.944C130.534 277.517 130.897 277.176 131.366 276.92C131.836 276.653 132.342 276.52 132.886 276.52C133.761 276.52 134.476 276.819 135.03 277.416C135.585 278.013 135.862 278.883 135.862 280.024V284.616C135.862 284.723 135.825 284.813 135.75 284.888C135.686 284.963 135.596 285 135.478 285H134.166C134.06 285 133.969 284.963 133.894 284.888C133.82 284.813 133.782 284.723 133.782 284.616V280.152C133.782 279.48 133.638 278.995 133.35 278.696C133.073 278.387 132.7 278.232 132.23 278.232C131.814 278.232 131.457 278.387 131.158 278.696C130.87 279.005 130.726 279.491 130.726 280.152V284.616C130.726 284.723 130.689 284.813 130.614 284.888C130.54 284.963 130.449 285 130.342 285H129.03C128.924 285 128.833 284.963 128.758 284.888C128.684 284.813 128.646 284.723 128.646 284.616V280.152C128.646 279.48 128.497 278.995 128.198 278.696C127.91 278.387 127.542 278.232 127.094 278.232C126.668 278.232 126.305 278.387 126.006 278.696C125.718 279.005 125.574 279.491 125.574 280.152V284.616C125.574 284.723 125.537 284.813 125.462 284.888C125.388 284.963 125.297 285 125.19 285H123.846ZM138.284 285C138.177 285 138.086 284.963 138.012 284.888C137.937 284.813 137.9 284.723 137.9 284.616V277.064C137.9 276.957 137.937 276.867 138.012 276.792C138.086 276.717 138.177 276.68 138.284 276.68H139.532C139.638 276.68 139.729 276.717 139.804 276.792C139.878 276.867 139.916 276.957 139.916 277.064V277.608C140.47 276.883 141.244 276.52 142.236 276.52C143.42 276.52 144.246 276.995 144.716 277.944C144.972 277.517 145.334 277.176 145.804 276.92C146.273 276.653 146.78 276.52 147.324 276.52C148.198 276.52 148.913 276.819 149.468 277.416C150.022 278.013 150.3 278.883 150.3 280.024V284.616C150.3 284.723 150.262 284.813 150.188 284.888C150.124 284.963 150.033 285 149.916 285H148.604C148.497 285 148.406 284.963 148.332 284.888C148.257 284.813 148.22 284.723 148.22 284.616V280.152C148.22 279.48 148.076 278.995 147.788 278.696C147.51 278.387 147.137 278.232 146.668 278.232C146.252 278.232 145.894 278.387 145.596 278.696C145.308 279.005 145.164 279.491 145.164 280.152V284.616C145.164 284.723 145.126 284.813 145.052 284.888C144.977 284.963 144.886 285 144.78 285H143.468C143.361 285 143.27 284.963 143.196 284.888C143.121 284.813 143.084 284.723 143.084 284.616V280.152C143.084 279.48 142.934 278.995 142.636 278.696C142.348 278.387 141.98 278.232 141.532 278.232C141.105 278.232 140.742 278.387 140.444 278.696C140.156 279.005 140.012 279.491 140.012 280.152V284.616C140.012 284.723 139.974 284.813 139.9 284.888C139.825 284.963 139.734 285 139.628 285H138.284ZM155.921 285.16C154.737 285.16 153.793 284.819 153.089 284.136C152.396 283.443 152.028 282.472 151.985 281.224L151.969 280.824L151.985 280.424C152.039 279.208 152.412 278.253 153.105 277.56C153.809 276.867 154.748 276.52 155.921 276.52C157.18 276.52 158.151 276.904 158.833 277.672C159.527 278.44 159.873 279.464 159.873 280.744V281.08C159.873 281.187 159.836 281.277 159.761 281.352C159.687 281.427 159.591 281.464 159.473 281.464H154.161V281.592C154.183 282.179 154.343 282.675 154.641 283.08C154.951 283.475 155.372 283.672 155.905 283.672C156.535 283.672 157.041 283.427 157.425 282.936C157.521 282.819 157.596 282.744 157.649 282.712C157.713 282.68 157.804 282.664 157.921 282.664H159.297C159.393 282.664 159.473 282.696 159.537 282.76C159.612 282.813 159.649 282.883 159.649 282.968C159.649 283.224 159.495 283.528 159.185 283.88C158.887 284.221 158.455 284.52 157.889 284.776C157.324 285.032 156.668 285.16 155.921 285.16ZM157.697 280.12V280.072C157.697 279.443 157.537 278.936 157.217 278.552C156.908 278.168 156.476 277.976 155.921 277.976C155.367 277.976 154.935 278.168 154.625 278.552C154.316 278.936 154.161 279.443 154.161 280.072V280.12H157.697ZM161.956 285C161.849 285 161.758 284.963 161.684 284.888C161.609 284.813 161.572 284.723 161.572 284.616V277.064C161.572 276.957 161.609 276.867 161.684 276.792C161.758 276.717 161.849 276.68 161.956 276.68H163.268C163.374 276.68 163.465 276.717 163.54 276.792C163.614 276.867 163.652 276.957 163.652 277.064V277.72C164.281 276.92 165.172 276.52 166.324 276.52C167.305 276.52 168.084 276.845 168.66 277.496C169.236 278.136 169.524 279.011 169.524 280.12V284.616C169.524 284.723 169.486 284.813 169.412 284.888C169.348 284.963 169.257 285 169.14 285H167.732C167.625 285 167.534 284.963 167.46 284.888C167.385 284.813 167.348 284.723 167.348 284.616V280.216C167.348 279.587 167.193 279.101 166.884 278.76C166.585 278.408 166.148 278.232 165.572 278.232C165.006 278.232 164.558 278.408 164.228 278.76C163.908 279.112 163.748 279.597 163.748 280.216V284.616C163.748 284.723 163.71 284.813 163.636 284.888C163.572 284.963 163.481 285 163.364 285H161.956ZM174.644 285.16C173.567 285.16 172.74 284.813 172.164 284.12C171.588 283.427 171.279 282.504 171.236 281.352L171.22 280.824L171.236 280.312C171.268 279.192 171.572 278.28 172.148 277.576C172.735 276.872 173.567 276.52 174.644 276.52C175.679 276.52 176.5 276.872 177.108 277.576V274.024C177.108 273.907 177.145 273.816 177.22 273.752C177.295 273.677 177.385 273.64 177.492 273.64H178.852C178.969 273.64 179.06 273.677 179.124 273.752C179.199 273.816 179.236 273.907 179.236 274.024V284.616C179.236 284.723 179.199 284.813 179.124 284.888C179.06 284.963 178.969 285 178.852 285H177.588C177.481 285 177.391 284.963 177.316 284.888C177.241 284.813 177.204 284.723 177.204 284.616V284.024C176.596 284.781 175.743 285.16 174.644 285.16ZM175.236 283.448C175.855 283.448 176.313 283.251 176.612 282.856C176.911 282.461 177.076 281.976 177.108 281.4C177.119 281.272 177.124 281.064 177.124 280.776C177.124 280.499 177.119 280.296 177.108 280.168C177.087 279.635 176.916 279.181 176.596 278.808C176.287 278.424 175.833 278.232 175.236 278.232C174.084 278.232 173.471 278.941 173.396 280.36L173.38 280.84L173.396 281.32C173.471 282.739 174.084 283.448 175.236 283.448ZM183.785 285.16C183.241 285.16 182.739 285.053 182.281 284.84C181.833 284.616 181.475 284.317 181.209 283.944C180.953 283.571 180.825 283.16 180.825 282.712C180.825 281.987 181.118 281.4 181.705 280.952C182.291 280.504 183.097 280.2 184.121 280.04L186.313 279.72V279.384C186.313 278.915 186.195 278.563 185.961 278.328C185.726 278.093 185.347 277.976 184.825 277.976C184.473 277.976 184.185 278.045 183.961 278.184C183.747 278.312 183.577 278.44 183.449 278.568C183.321 278.707 183.235 278.797 183.193 278.84C183.15 278.968 183.07 279.032 182.953 279.032H181.721C181.625 279.032 181.539 279 181.465 278.936C181.401 278.872 181.368 278.787 181.368 278.68C181.379 278.413 181.507 278.109 181.753 277.768C182.009 277.427 182.398 277.133 182.921 276.888C183.443 276.643 184.083 276.52 184.841 276.52C186.099 276.52 187.017 276.803 187.593 277.368C188.169 277.933 188.457 278.675 188.457 279.592V284.616C188.457 284.723 188.419 284.813 188.345 284.888C188.281 284.963 188.19 285 188.073 285H186.777C186.67 285 186.579 284.963 186.505 284.888C186.43 284.813 186.393 284.723 186.393 284.616V283.992C186.158 284.333 185.822 284.616 185.385 284.84C184.958 285.053 184.425 285.16 183.785 285.16ZM184.329 283.64C184.915 283.64 185.395 283.448 185.769 283.064C186.142 282.68 186.329 282.12 186.329 281.384V281.048L184.729 281.304C184.11 281.4 183.641 281.555 183.321 281.768C183.011 281.981 182.857 282.243 182.857 282.552C182.857 282.893 183.001 283.16 183.289 283.352C183.577 283.544 183.923 283.64 184.329 283.64ZM194.191 285C193.22 285 192.49 284.749 191.999 284.248C191.519 283.736 191.279 282.989 191.279 282.008V278.376H190.015C189.908 278.376 189.818 278.339 189.743 278.264C189.668 278.179 189.631 278.083 189.631 277.976V277.064C189.631 276.957 189.668 276.867 189.743 276.792C189.818 276.717 189.908 276.68 190.015 276.68H191.279V274.024C191.279 273.907 191.316 273.816 191.391 273.752C191.466 273.677 191.556 273.64 191.663 273.64H192.959C193.076 273.64 193.167 273.677 193.231 273.752C193.306 273.816 193.343 273.907 193.343 274.024V276.68H195.343C195.46 276.68 195.551 276.717 195.615 276.792C195.69 276.856 195.727 276.947 195.727 277.064V277.976C195.727 278.093 195.69 278.189 195.615 278.264C195.54 278.339 195.45 278.376 195.343 278.376H193.343V281.848C193.343 282.307 193.423 282.653 193.583 282.888C193.743 283.123 194.01 283.24 194.383 283.24H195.487C195.594 283.24 195.684 283.277 195.759 283.352C195.834 283.427 195.871 283.517 195.871 283.624V284.616C195.871 284.723 195.834 284.813 195.759 284.888C195.695 284.963 195.604 285 195.487 285H194.191ZM197.61 275.304C197.504 275.304 197.413 275.267 197.338 275.192C197.264 275.117 197.226 275.027 197.226 274.92V273.768C197.226 273.661 197.264 273.571 197.338 273.496C197.413 273.421 197.504 273.384 197.61 273.384H199.066C199.173 273.384 199.264 273.421 199.338 273.496C199.424 273.571 199.466 273.661 199.466 273.768V274.92C199.466 275.027 199.429 275.117 199.354 275.192C199.28 275.267 199.184 275.304 199.066 275.304H197.61ZM197.674 285C197.568 285 197.477 284.963 197.402 284.888C197.328 284.813 197.29 284.723 197.29 284.616V277.064C197.29 276.957 197.328 276.867 197.402 276.792C197.477 276.717 197.568 276.68 197.674 276.68H199.002C199.12 276.68 199.21 276.717 199.274 276.792C199.349 276.856 199.386 276.947 199.386 277.064V284.616C199.386 284.723 199.349 284.813 199.274 284.888C199.21 284.963 199.12 285 199.002 285H197.674ZM205.189 285.16C203.941 285.16 202.976 284.84 202.293 284.2C201.61 283.549 201.242 282.664 201.189 281.544L201.173 280.84L201.189 280.136C201.242 279.027 201.616 278.147 202.309 277.496C203.002 276.845 203.962 276.52 205.189 276.52C206.416 276.52 207.376 276.845 208.069 277.496C208.762 278.147 209.136 279.027 209.189 280.136C209.2 280.264 209.205 280.499 209.205 280.84C209.205 281.181 209.2 281.416 209.189 281.544C209.136 282.664 208.768 283.549 208.085 284.2C207.402 284.84 206.437 285.16 205.189 285.16ZM205.189 283.576C205.754 283.576 206.192 283.4 206.501 283.048C206.81 282.685 206.981 282.157 207.013 281.464C207.024 281.357 207.029 281.149 207.029 280.84C207.029 280.531 207.024 280.323 207.013 280.216C206.981 279.523 206.81 279 206.501 278.648C206.192 278.285 205.754 278.104 205.189 278.104C204.624 278.104 204.186 278.285 203.877 278.648C203.568 279 203.397 279.523 203.365 280.216L203.349 280.84L203.365 281.464C203.397 282.157 203.568 282.685 203.877 283.048C204.186 283.4 204.624 283.576 205.189 283.576ZM211.362 285C211.255 285 211.165 284.963 211.09 284.888C211.015 284.813 210.978 284.723 210.978 284.616V277.064C210.978 276.957 211.015 276.867 211.09 276.792C211.165 276.717 211.255 276.68 211.362 276.68H212.674C212.781 276.68 212.871 276.717 212.946 276.792C213.021 276.867 213.058 276.957 213.058 277.064V277.72C213.687 276.92 214.578 276.52 215.73 276.52C216.711 276.52 217.49 276.845 218.066 277.496C218.642 278.136 218.93 279.011 218.93 280.12V284.616C218.93 284.723 218.893 284.813 218.818 284.888C218.754 284.963 218.663 285 218.546 285H217.138C217.031 285 216.941 284.963 216.866 284.888C216.791 284.813 216.754 284.723 216.754 284.616V280.216C216.754 279.587 216.599 279.101 216.29 278.76C215.991 278.408 215.554 278.232 214.978 278.232C214.413 278.232 213.965 278.408 213.634 278.76C213.314 279.112 213.154 279.597 213.154 280.216V284.616C213.154 284.723 213.117 284.813 213.042 284.888C212.978 284.963 212.887 285 212.77 285H211.362ZM224.114 285.16C223.314 285.16 222.642 285.043 222.098 284.808C221.554 284.563 221.149 284.28 220.882 283.96C220.626 283.629 220.498 283.347 220.498 283.112C220.498 283.005 220.536 282.92 220.61 282.856C220.685 282.792 220.77 282.76 220.866 282.76H222.13C222.226 282.76 222.306 282.797 222.37 282.872C222.413 282.904 222.525 283 222.706 283.16C222.888 283.331 223.101 283.464 223.346 283.56C223.592 283.656 223.864 283.704 224.162 283.704C224.589 283.704 224.941 283.619 225.218 283.448C225.496 283.277 225.634 283.043 225.634 282.744C225.634 282.52 225.57 282.339 225.442 282.2C225.325 282.061 225.106 281.939 224.786 281.832C224.466 281.715 223.992 281.592 223.362 281.464C222.456 281.272 221.784 280.979 221.346 280.584C220.92 280.189 220.706 279.667 220.706 279.016C220.706 278.589 220.834 278.189 221.09 277.816C221.346 277.432 221.725 277.123 222.226 276.888C222.738 276.643 223.346 276.52 224.05 276.52C224.765 276.52 225.384 276.637 225.906 276.872C226.429 277.096 226.824 277.368 227.09 277.688C227.368 277.997 227.506 278.275 227.506 278.52C227.506 278.616 227.469 278.701 227.394 278.776C227.33 278.84 227.25 278.872 227.154 278.872H225.97C225.885 278.872 225.794 278.835 225.698 278.76C225.624 278.707 225.506 278.605 225.346 278.456C225.186 278.307 225 278.189 224.786 278.104C224.573 278.019 224.322 277.976 224.034 277.976C223.64 277.976 223.33 278.061 223.106 278.232C222.893 278.403 222.786 278.627 222.786 278.904C222.786 279.107 222.84 279.272 222.946 279.4C223.053 279.528 223.261 279.651 223.57 279.768C223.88 279.885 224.344 280.003 224.962 280.12C225.986 280.323 226.717 280.637 227.154 281.064C227.602 281.491 227.826 282.013 227.826 282.632C227.826 283.379 227.501 283.987 226.85 284.456C226.2 284.925 225.288 285.16 224.114 285.16Z" fill="#1C1C1C" fill-opacity="0.87"/>
<circle cx="64" cy="256" r="12" fill="#FF4D00"/>
<rect x="67.1821" y="250.697" width="3" height="12" rx="1.5" transform="rotate(45 67.1821 250.697)" fill="white"/>
<rect x="69.3032" y="259.182" width="3" height="12" rx="1.5" transform="rotate(135 69.3032 259.182)" fill="white"/>
<rect x="32" y="128" width="224" height="64" rx="8" fill="white"/>
<circle cx="64" cy="160" r="12" fill="#FF4D00"/>
<rect x="67.1821" y="154.697" width="3" height="12" rx="1.5" transform="rotate(45 67.1821 154.697)" fill="white"/>
<rect x="69.3032" y="163.182" width="3" height="12" rx="1.5" transform="rotate(135 69.3032 163.182)" fill="white"/>
<path d="M89.632 165C89.5253 165 89.4347 164.963 89.36 164.888C89.2853 164.813 89.248 164.723 89.248 164.616V154.2C89.248 154.083 89.28 153.987 89.344 153.912C89.4187 153.837 89.5147 153.8 89.632 153.8H90.864C90.992 153.8 91.088 153.827 91.152 153.88C91.216 153.923 91.2747 153.981 91.328 154.056L95.936 161.224V154.2C95.936 154.083 95.968 153.987 96.032 153.912C96.1067 153.837 96.2027 153.8 96.32 153.8H97.664C97.7813 153.8 97.8773 153.837 97.952 153.912C98.0267 153.987 98.064 154.083 98.064 154.2V164.6C98.064 164.717 98.0267 164.813 97.952 164.888C97.8773 164.963 97.7867 165 97.68 165H96.432C96.2507 165 96.096 164.915 95.968 164.744L91.376 157.736V164.616C91.376 164.733 91.3387 164.829 91.264 164.904C91.1893 164.968 91.0933 165 90.976 165H89.632ZM104.049 165.16C102.801 165.16 101.835 164.84 101.153 164.2C100.47 163.549 100.102 162.664 100.049 161.544L100.033 160.84L100.049 160.136C100.102 159.027 100.475 158.147 101.169 157.496C101.862 156.845 102.822 156.52 104.049 156.52C105.275 156.52 106.235 156.845 106.929 157.496C107.622 158.147 107.995 159.027 108.049 160.136C108.059 160.264 108.065 160.499 108.065 160.84C108.065 161.181 108.059 161.416 108.049 161.544C107.995 162.664 107.627 163.549 106.945 164.2C106.262 164.84 105.297 165.16 104.049 165.16ZM104.049 163.576C104.614 163.576 105.051 163.4 105.361 163.048C105.67 162.685 105.841 162.157 105.873 161.464C105.883 161.357 105.889 161.149 105.889 160.84C105.889 160.531 105.883 160.323 105.873 160.216C105.841 159.523 105.67 159 105.361 158.648C105.051 158.285 104.614 158.104 104.049 158.104C103.483 158.104 103.046 158.285 102.737 158.648C102.427 159 102.257 159.523 102.225 160.216L102.209 160.84L102.225 161.464C102.257 162.157 102.427 162.685 102.737 163.048C103.046 163.4 103.483 163.576 104.049 163.576ZM116.646 165.16C115.846 165.16 115.174 165.043 114.63 164.808C114.086 164.563 113.68 164.28 113.414 163.96C113.158 163.629 113.03 163.347 113.03 163.112C113.03 163.005 113.067 162.92 113.142 162.856C113.216 162.792 113.302 162.76 113.398 162.76H114.662C114.758 162.76 114.838 162.797 114.902 162.872C114.944 162.904 115.056 163 115.238 163.16C115.419 163.331 115.632 163.464 115.878 163.56C116.123 163.656 116.395 163.704 116.694 163.704C117.12 163.704 117.472 163.619 117.75 163.448C118.027 163.277 118.166 163.043 118.166 162.744C118.166 162.52 118.102 162.339 117.974 162.2C117.856 162.061 117.638 161.939 117.318 161.832C116.998 161.715 116.523 161.592 115.894 161.464C114.987 161.272 114.315 160.979 113.878 160.584C113.451 160.189 113.238 159.667 113.238 159.016C113.238 158.589 113.366 158.189 113.622 157.816C113.878 157.432 114.256 157.123 114.758 156.888C115.27 156.643 115.878 156.52 116.582 156.52C117.296 156.52 117.915 156.637 118.438 156.872C118.96 157.096 119.355 157.368 119.622 157.688C119.899 157.997 120.038 158.275 120.038 158.52C120.038 158.616 120 158.701 119.926 158.776C119.862 158.84 119.782 158.872 119.686 158.872H118.502C118.416 158.872 118.326 158.835 118.23 158.76C118.155 158.707 118.038 158.605 117.878 158.456C117.718 158.307 117.531 158.189 117.318 158.104C117.104 158.019 116.854 157.976 116.566 157.976C116.171 157.976 115.862 158.061 115.638 158.232C115.424 158.403 115.318 158.627 115.318 158.904C115.318 159.107 115.371 159.272 115.478 159.4C115.584 159.528 115.792 159.651 116.102 159.768C116.411 159.885 116.875 160.003 117.494 160.12C118.518 160.323 119.248 160.637 119.686 161.064C120.134 161.491 120.358 162.013 120.358 162.632C120.358 163.379 120.032 163.987 119.382 164.456C118.731 164.925 117.819 165.16 116.646 165.16ZM125.609 165.16C124.436 165.16 123.497 164.835 122.793 164.184C122.1 163.533 121.732 162.632 121.689 161.48L121.673 160.84L121.689 160.2C121.732 159.048 122.1 158.147 122.793 157.496C123.497 156.845 124.436 156.52 125.609 156.52C126.441 156.52 127.145 156.669 127.721 156.968C128.308 157.267 128.74 157.635 129.017 158.072C129.305 158.499 129.46 158.904 129.481 159.288C129.492 159.395 129.454 159.485 129.369 159.56C129.294 159.635 129.204 159.672 129.097 159.672H127.689C127.582 159.672 127.497 159.651 127.433 159.608C127.38 159.555 127.326 159.469 127.273 159.352C127.113 158.936 126.9 158.637 126.633 158.456C126.377 158.275 126.046 158.184 125.641 158.184C125.097 158.184 124.67 158.36 124.361 158.712C124.052 159.053 123.886 159.576 123.865 160.28L123.849 160.872L123.865 161.4C123.908 162.797 124.5 163.496 125.641 163.496C126.057 163.496 126.393 163.405 126.649 163.224C126.905 163.043 127.113 162.744 127.273 162.328C127.326 162.211 127.38 162.131 127.433 162.088C127.497 162.035 127.582 162.008 127.689 162.008H129.097C129.204 162.008 129.294 162.045 129.369 162.12C129.454 162.195 129.492 162.285 129.481 162.392C129.46 162.765 129.31 163.165 129.033 163.592C128.756 164.019 128.329 164.387 127.753 164.696C127.177 165.005 126.462 165.16 125.609 165.16ZM133.566 165.16C133.022 165.16 132.52 165.053 132.062 164.84C131.614 164.616 131.256 164.317 130.99 163.944C130.734 163.571 130.606 163.16 130.606 162.712C130.606 161.987 130.899 161.4 131.486 160.952C132.072 160.504 132.878 160.2 133.902 160.04L136.094 159.72V159.384C136.094 158.915 135.976 158.563 135.742 158.328C135.507 158.093 135.128 157.976 134.606 157.976C134.254 157.976 133.966 158.045 133.742 158.184C133.528 158.312 133.358 158.44 133.23 158.568C133.102 158.707 133.016 158.797 132.974 158.84C132.931 158.968 132.851 159.032 132.734 159.032H131.502C131.406 159.032 131.32 159 131.246 158.936C131.182 158.872 131.15 158.787 131.15 158.68C131.16 158.413 131.288 158.109 131.534 157.768C131.79 157.427 132.179 157.133 132.702 156.888C133.224 156.643 133.864 156.52 134.622 156.52C135.88 156.52 136.798 156.803 137.374 157.368C137.95 157.933 138.238 158.675 138.238 159.592V164.616C138.238 164.723 138.2 164.813 138.126 164.888C138.062 164.963 137.971 165 137.854 165H136.558C136.451 165 136.36 164.963 136.286 164.888C136.211 164.813 136.174 164.723 136.174 164.616V163.992C135.939 164.333 135.603 164.616 135.166 164.84C134.739 165.053 134.206 165.16 133.566 165.16ZM134.11 163.64C134.696 163.64 135.176 163.448 135.55 163.064C135.923 162.68 136.11 162.12 136.11 161.384V161.048L134.51 161.304C133.891 161.4 133.422 161.555 133.102 161.768C132.792 161.981 132.638 162.243 132.638 162.552C132.638 162.893 132.782 163.16 133.07 163.352C133.358 163.544 133.704 163.64 134.11 163.64ZM140.674 165C140.568 165 140.477 164.963 140.402 164.888C140.328 164.813 140.29 164.723 140.29 164.616V157.064C140.29 156.957 140.328 156.867 140.402 156.792C140.477 156.717 140.568 156.68 140.674 156.68H141.922C142.029 156.68 142.12 156.717 142.194 156.792C142.269 156.867 142.306 156.957 142.306 157.064V157.608C142.861 156.883 143.634 156.52 144.626 156.52C145.81 156.52 146.637 156.995 147.106 157.944C147.362 157.517 147.725 157.176 148.194 156.92C148.664 156.653 149.17 156.52 149.714 156.52C150.589 156.52 151.304 156.819 151.858 157.416C152.413 158.013 152.69 158.883 152.69 160.024V164.616C152.69 164.723 152.653 164.813 152.578 164.888C152.514 164.963 152.424 165 152.306 165H150.994C150.888 165 150.797 164.963 150.722 164.888C150.648 164.813 150.61 164.723 150.61 164.616V160.152C150.61 159.48 150.466 158.995 150.178 158.696C149.901 158.387 149.528 158.232 149.058 158.232C148.642 158.232 148.285 158.387 147.986 158.696C147.698 159.005 147.554 159.491 147.554 160.152V164.616C147.554 164.723 147.517 164.813 147.442 164.888C147.368 164.963 147.277 165 147.17 165H145.858C145.752 165 145.661 164.963 145.586 164.888C145.512 164.813 145.474 164.723 145.474 164.616V160.152C145.474 159.48 145.325 158.995 145.026 158.696C144.738 158.387 144.37 158.232 143.922 158.232C143.496 158.232 143.133 158.387 142.834 158.696C142.546 159.005 142.402 159.491 142.402 160.152V164.616C142.402 164.723 142.365 164.813 142.29 164.888C142.216 164.963 142.125 165 142.018 165H140.674ZM157.88 165.16C157.08 165.16 156.408 165.043 155.864 164.808C155.32 164.563 154.915 164.28 154.648 163.96C154.392 163.629 154.264 163.347 154.264 163.112C154.264 163.005 154.301 162.92 154.376 162.856C154.451 162.792 154.536 162.76 154.632 162.76H155.896C155.992 162.76 156.072 162.797 156.136 162.872C156.179 162.904 156.291 163 156.472 163.16C156.653 163.331 156.867 163.464 157.112 163.56C157.357 163.656 157.629 163.704 157.928 163.704C158.355 163.704 158.707 163.619 158.984 163.448C159.261 163.277 159.4 163.043 159.4 162.744C159.4 162.52 159.336 162.339 159.208 162.2C159.091 162.061 158.872 161.939 158.552 161.832C158.232 161.715 157.757 161.592 157.128 161.464C156.221 161.272 155.549 160.979 155.112 160.584C154.685 160.189 154.472 159.667 154.472 159.016C154.472 158.589 154.6 158.189 154.856 157.816C155.112 157.432 155.491 157.123 155.992 156.888C156.504 156.643 157.112 156.52 157.816 156.52C158.531 156.52 159.149 156.637 159.672 156.872C160.195 157.096 160.589 157.368 160.856 157.688C161.133 157.997 161.272 158.275 161.272 158.52C161.272 158.616 161.235 158.701 161.16 158.776C161.096 158.84 161.016 158.872 160.92 158.872H159.736C159.651 158.872 159.56 158.835 159.464 158.76C159.389 158.707 159.272 158.605 159.112 158.456C158.952 158.307 158.765 158.189 158.552 158.104C158.339 158.019 158.088 157.976 157.8 157.976C157.405 157.976 157.096 158.061 156.872 158.232C156.659 158.403 156.552 158.627 156.552 158.904C156.552 159.107 156.605 159.272 156.712 159.4C156.819 159.528 157.027 159.651 157.336 159.768C157.645 159.885 158.109 160.003 158.728 160.12C159.752 160.323 160.483 160.637 160.92 161.064C161.368 161.491 161.592 162.013 161.592 162.632C161.592 163.379 161.267 163.987 160.616 164.456C159.965 164.925 159.053 165.16 157.88 165.16Z" fill="#1C1C1C" fill-opacity="0.87"/>
</svg>
