<svg width="544" height="256" viewBox="0 0 544 256" fill="none" xmlns="http://www.w3.org/2000/svg">
<rect width="544" height="256" rx="12" fill="#F1F4F7"/>
<rect x="32" y="32" width="224" height="80" rx="8" fill="white"/>
<circle cx="72" cy="72" r="16" fill="#FF4D00"/>
<rect x="76.2427" y="64.9289" width="4" height="16" rx="2" transform="rotate(45 76.2427 64.9289)" fill="white"/>
<rect x="79.0713" y="76.2426" width="4" height="16" rx="2" transform="rotate(135 79.0713 76.2426)" fill="white"/>
<path d="M106.04 79C105.907 79 105.793 78.9533 105.7 78.86C105.607 78.7667 105.56 78.6533 105.56 78.52V65.5C105.56 65.3533 105.6 65.2333 105.68 65.14C105.773 65.0467 105.893 65 106.04 65H107.6C107.853 65 108.047 65.1133 108.18 65.34L113.9 74.22V65.5C113.9 65.3533 113.94 65.2333 114.02 65.14C114.113 65.0467 114.233 65 114.38 65H116.1C116.247 65 116.367 65.0467 116.46 65.14C116.553 65.2333 116.6 65.3533 116.6 65.5V78.5C116.6 78.6467 116.553 78.7667 116.46 78.86C116.367 78.9533 116.253 79 116.12 79H114.54C114.273 79 114.073 78.8867 113.94 78.66L108.24 69.98V78.52C108.24 78.6533 108.193 78.7667 108.1 78.86C108.02 78.9533 107.907 79 107.76 79H106.04ZM124.081 79.2C122.507 79.2 121.294 78.8 120.441 78C119.587 77.2 119.127 76.0933 119.061 74.68L119.041 73.8L119.061 72.92C119.127 71.52 119.594 70.42 120.461 69.62C121.327 68.8067 122.534 68.4 124.081 68.4C125.614 68.4 126.814 68.8067 127.681 69.62C128.547 70.42 129.014 71.52 129.081 72.92C129.094 73.08 129.101 73.3733 129.101 73.8C129.101 74.2267 129.094 74.52 129.081 74.68C129.014 76.0933 128.554 77.2 127.701 78C126.847 78.8 125.641 79.2 124.081 79.2ZM124.081 77.18C124.787 77.18 125.327 76.96 125.701 76.52C126.087 76.08 126.294 75.4333 126.321 74.58C126.334 74.4467 126.341 74.1867 126.341 73.8C126.341 73.4133 126.334 73.1533 126.321 73.02C126.294 72.1667 126.087 71.52 125.701 71.08C125.314 70.6267 124.774 70.4 124.081 70.4C123.374 70.4 122.827 70.6267 122.441 71.08C122.054 71.52 121.847 72.1667 121.821 73.02L121.801 73.8L121.821 74.58C121.847 75.4333 122.054 76.08 122.441 76.52C122.827 76.96 123.374 77.18 124.081 77.18ZM140.196 79C138.983 79 138.07 78.6867 137.456 78.06C136.843 77.42 136.536 76.4867 136.536 75.26V70.74H134.956C134.823 70.74 134.71 70.6933 134.616 70.6C134.523 70.5067 134.476 70.3933 134.476 70.26V69.08C134.476 68.9467 134.523 68.8333 134.616 68.74C134.71 68.6467 134.823 68.6 134.956 68.6H136.536V65.28C136.536 65.1333 136.583 65.02 136.676 64.94C136.77 64.8467 136.883 64.8 137.016 64.8H138.676C138.823 64.8 138.936 64.8467 139.016 64.94C139.11 65.02 139.156 65.1333 139.156 65.28V68.6H141.656C141.79 68.6 141.903 68.6467 141.996 68.74C142.09 68.8333 142.136 68.9467 142.136 69.08V70.26C142.136 70.3933 142.09 70.5067 141.996 70.6C141.903 70.6933 141.79 70.74 141.656 70.74H139.156V75.04C139.156 75.6133 139.256 76.0467 139.456 76.34C139.656 76.6333 139.983 76.78 140.436 76.78H141.836C141.983 76.78 142.096 76.8267 142.176 76.92C142.27 77 142.316 77.1133 142.316 77.26V78.52C142.316 78.6533 142.27 78.7667 142.176 78.86C142.096 78.9533 141.983 79 141.836 79H140.196ZM144.57 79C144.436 79 144.323 78.9533 144.23 78.86C144.136 78.7667 144.09 78.6533 144.09 78.52V69.1C144.09 68.9533 144.136 68.8333 144.23 68.74C144.323 68.6467 144.436 68.6 144.57 68.6H146.21C146.356 68.6 146.476 68.6467 146.57 68.74C146.663 68.8333 146.71 68.9533 146.71 69.1V69.92C147.376 69.04 148.336 68.6 149.59 68.6H150.43C150.576 68.6 150.69 68.6467 150.77 68.74C150.863 68.82 150.91 68.9333 150.91 69.08V70.54C150.91 70.6733 150.863 70.7867 150.77 70.88C150.69 70.9733 150.576 71.02 150.43 71.02H148.85C148.223 71.02 147.73 71.2 147.37 71.56C147.01 71.92 146.83 72.4133 146.83 73.04V78.52C146.83 78.6533 146.783 78.7667 146.69 78.86C146.596 78.9533 146.483 79 146.35 79H144.57ZM156.952 79.2C155.378 79.2 154.165 78.8 153.312 78C152.458 77.2 151.998 76.0933 151.932 74.68L151.912 73.8L151.932 72.92C151.998 71.52 152.465 70.42 153.332 69.62C154.198 68.8067 155.405 68.4 156.952 68.4C158.485 68.4 159.685 68.8067 160.552 69.62C161.418 70.42 161.885 71.52 161.952 72.92C161.965 73.08 161.972 73.3733 161.972 73.8C161.972 74.2267 161.965 74.52 161.952 74.68C161.885 76.0933 161.425 77.2 160.572 78C159.718 78.8 158.512 79.2 156.952 79.2ZM156.952 77.18C157.658 77.18 158.198 76.96 158.572 76.52C158.958 76.08 159.165 75.4333 159.192 74.58C159.205 74.4467 159.212 74.1867 159.212 73.8C159.212 73.4133 159.205 73.1533 159.192 73.02C159.165 72.1667 158.958 71.52 158.572 71.08C158.185 70.6267 157.645 70.4 156.952 70.4C156.245 70.4 155.698 70.6267 155.312 71.08C154.925 71.52 154.718 72.1667 154.692 73.02L154.672 73.8L154.692 74.58C154.718 75.4333 154.925 76.08 155.312 76.52C155.698 76.96 156.245 77.18 156.952 77.18ZM164.687 79C164.554 79 164.441 78.9533 164.347 78.86C164.254 78.7667 164.207 78.6533 164.207 78.52V65.28C164.207 65.1333 164.254 65.02 164.347 64.94C164.441 64.8467 164.554 64.8 164.687 64.8H166.367C166.514 64.8 166.627 64.8467 166.707 64.94C166.801 65.02 166.847 65.1333 166.847 65.28V78.52C166.847 78.6533 166.801 78.7667 166.707 78.86C166.627 78.9533 166.514 79 166.367 79H164.687ZM170 79C169.866 79 169.753 78.9533 169.66 78.86C169.566 78.7667 169.52 78.6533 169.52 78.52V65.28C169.52 65.1333 169.566 65.02 169.66 64.94C169.753 64.8467 169.866 64.8 170 64.8H171.68C171.826 64.8 171.94 64.8467 172.02 64.94C172.113 65.02 172.16 65.1333 172.16 65.28V78.52C172.16 78.6533 172.113 78.7667 172.02 78.86C171.94 78.9533 171.826 79 171.68 79H170ZM178.772 79.2C177.759 79.2 176.912 79.0467 176.232 78.74C175.552 78.4333 175.046 78.08 174.712 77.68C174.392 77.2667 174.232 76.9133 174.232 76.62C174.232 76.4867 174.272 76.38 174.352 76.3C174.446 76.22 174.552 76.18 174.672 76.18H176.312C176.419 76.18 176.512 76.2333 176.592 76.34C176.659 76.3933 176.806 76.52 177.032 76.72C177.272 76.92 177.539 77.08 177.832 77.2C178.139 77.3067 178.472 77.36 178.832 77.36C179.366 77.36 179.799 77.26 180.132 77.06C180.466 76.8467 180.632 76.5467 180.632 76.16C180.632 75.8933 180.552 75.68 180.392 75.52C180.246 75.3467 179.972 75.1933 179.572 75.06C179.186 74.9133 178.599 74.7533 177.812 74.58C176.679 74.34 175.839 73.9733 175.292 73.48C174.759 72.9867 174.492 72.3333 174.492 71.52C174.492 70.9867 174.652 70.4867 174.972 70.02C175.292 69.54 175.766 69.1533 176.392 68.86C177.032 68.5533 177.792 68.4 178.672 68.4C179.579 68.4 180.359 68.5467 181.012 68.84C181.666 69.12 182.159 69.46 182.492 69.86C182.839 70.26 183.012 70.6133 183.012 70.92C183.012 71.04 182.966 71.1467 182.872 71.24C182.792 71.32 182.692 71.36 182.572 71.36H181.072C180.926 71.36 180.812 71.3067 180.732 71.2C180.639 71.1333 180.486 71.0133 180.272 70.84C180.072 70.6533 179.846 70.5067 179.592 70.4C179.339 70.2933 179.032 70.24 178.672 70.24C178.179 70.24 177.799 70.3467 177.532 70.56C177.266 70.7733 177.132 71.0533 177.132 71.4C177.132 71.64 177.192 71.84 177.312 72C177.446 72.16 177.706 72.3133 178.092 72.46C178.479 72.5933 179.059 72.7333 179.832 72.88C182.232 73.3467 183.432 74.3933 183.432 76.02C183.432 76.9667 183.019 77.7333 182.192 78.32C181.379 78.9067 180.239 79.2 178.772 79.2Z" fill="#1C1C1C" fill-opacity="0.87"/>
<rect x="288" y="32" width="224" height="80" rx="8" fill="white"/>
<circle cx="328" cy="72" r="16" fill="#FF4D00"/>
<rect x="332.243" y="64.9289" width="4" height="16" rx="2" transform="rotate(45 332.243 64.9289)" fill="white"/>
<rect x="335.071" y="76.2426" width="4" height="16" rx="2" transform="rotate(135 335.071 76.2426)" fill="white"/>
<path d="M366.04 79C365.907 79 365.793 78.9533 365.7 78.86C365.607 78.7667 365.56 78.6533 365.56 78.52V65.5C365.56 65.3533 365.6 65.2333 365.68 65.14C365.773 65.0467 365.893 65 366.04 65H367.6C367.853 65 368.047 65.1133 368.18 65.34L373.9 74.22V65.5C373.9 65.3533 373.94 65.2333 374.02 65.14C374.113 65.0467 374.233 65 374.38 65H376.1C376.247 65 376.367 65.0467 376.46 65.14C376.553 65.2333 376.6 65.3533 376.6 65.5V78.5C376.6 78.6467 376.553 78.7667 376.46 78.86C376.367 78.9533 376.253 79 376.12 79H374.54C374.273 79 374.073 78.8867 373.94 78.66L368.24 69.98V78.52C368.24 78.6533 368.193 78.7667 368.1 78.86C368.02 78.9533 367.907 79 367.76 79H366.04ZM384.081 79.2C382.507 79.2 381.294 78.8 380.441 78C379.587 77.2 379.127 76.0933 379.061 74.68L379.041 73.8L379.061 72.92C379.127 71.52 379.594 70.42 380.461 69.62C381.327 68.8067 382.534 68.4 384.081 68.4C385.614 68.4 386.814 68.8067 387.681 69.62C388.547 70.42 389.014 71.52 389.081 72.92C389.094 73.08 389.101 73.3733 389.101 73.8C389.101 74.2267 389.094 74.52 389.081 74.68C389.014 76.0933 388.554 77.2 387.701 78C386.847 78.8 385.641 79.2 384.081 79.2ZM384.081 77.18C384.787 77.18 385.327 76.96 385.701 76.52C386.087 76.08 386.294 75.4333 386.321 74.58C386.334 74.4467 386.341 74.1867 386.341 73.8C386.341 73.4133 386.334 73.1533 386.321 73.02C386.294 72.1667 386.087 71.52 385.701 71.08C385.314 70.6267 384.774 70.4 384.081 70.4C383.374 70.4 382.827 70.6267 382.441 71.08C382.054 71.52 381.847 72.1667 381.821 73.02L381.801 73.8L381.821 74.58C381.847 75.4333 382.054 76.08 382.441 76.52C382.827 76.96 383.374 77.18 384.081 77.18ZM399.827 79.2C398.814 79.2 397.967 79.0467 397.287 78.74C396.607 78.4333 396.1 78.08 395.767 77.68C395.447 77.2667 395.287 76.9133 395.287 76.62C395.287 76.4867 395.327 76.38 395.407 76.3C395.5 76.22 395.607 76.18 395.727 76.18H397.367C397.474 76.18 397.567 76.2333 397.647 76.34C397.714 76.3933 397.86 76.52 398.087 76.72C398.327 76.92 398.594 77.08 398.887 77.2C399.194 77.3067 399.527 77.36 399.887 77.36C400.42 77.36 400.854 77.26 401.187 77.06C401.52 76.8467 401.687 76.5467 401.687 76.16C401.687 75.8933 401.607 75.68 401.447 75.52C401.3 75.3467 401.027 75.1933 400.627 75.06C400.24 74.9133 399.654 74.7533 398.867 74.58C397.734 74.34 396.894 73.9733 396.347 73.48C395.814 72.9867 395.547 72.3333 395.547 71.52C395.547 70.9867 395.707 70.4867 396.027 70.02C396.347 69.54 396.82 69.1533 397.447 68.86C398.087 68.5533 398.847 68.4 399.727 68.4C400.634 68.4 401.414 68.5467 402.067 68.84C402.72 69.12 403.214 69.46 403.547 69.86C403.894 70.26 404.067 70.6133 404.067 70.92C404.067 71.04 404.02 71.1467 403.927 71.24C403.847 71.32 403.747 71.36 403.627 71.36H402.127C401.98 71.36 401.867 71.3067 401.787 71.2C401.694 71.1333 401.54 71.0133 401.327 70.84C401.127 70.6533 400.9 70.5067 400.647 70.4C400.394 70.2933 400.087 70.24 399.727 70.24C399.234 70.24 398.854 70.3467 398.587 70.56C398.32 70.7733 398.187 71.0533 398.187 71.4C398.187 71.64 398.247 71.84 398.367 72C398.5 72.16 398.76 72.3133 399.147 72.46C399.534 72.5933 400.114 72.7333 400.887 72.88C403.287 73.3467 404.487 74.3933 404.487 76.02C404.487 76.9667 404.074 77.7333 403.247 78.32C402.434 78.9067 401.294 79.2 399.827 79.2ZM411.031 79.2C409.564 79.2 408.391 78.7933 407.511 77.98C406.644 77.1667 406.184 76.04 406.131 74.6L406.111 73.8L406.131 73C406.184 71.56 406.644 70.4333 407.511 69.62C408.391 68.8067 409.564 68.4 411.031 68.4C412.084 68.4 412.971 68.5867 413.691 68.96C414.424 69.3333 414.964 69.7933 415.311 70.34C415.671 70.8733 415.864 71.3867 415.891 71.88C415.904 72.0133 415.858 72.1267 415.751 72.22C415.658 72.3133 415.544 72.36 415.411 72.36H413.631C413.484 72.36 413.378 72.3333 413.311 72.28C413.244 72.2133 413.178 72.1 413.111 71.94C412.911 71.4333 412.644 71.0667 412.311 70.84C411.991 70.6133 411.578 70.5 411.071 70.5C410.391 70.5 409.858 70.7133 409.471 71.14C409.098 71.5667 408.898 72.22 408.871 73.1L408.851 73.84L408.871 74.5C408.951 76.2333 409.684 77.1 411.071 77.1C411.591 77.1 412.011 76.9933 412.331 76.78C412.651 76.5533 412.911 76.18 413.111 75.66C413.164 75.5133 413.224 75.4067 413.291 75.34C413.371 75.2733 413.484 75.24 413.631 75.24H415.411C415.544 75.24 415.658 75.2867 415.751 75.38C415.858 75.4733 415.904 75.5867 415.891 75.72C415.864 76.1867 415.678 76.6933 415.331 77.24C414.984 77.7733 414.451 78.2333 413.731 78.62C413.011 79.0067 412.111 79.2 411.031 79.2ZM420.996 79.2C420.316 79.2 419.69 79.0667 419.116 78.8C418.556 78.52 418.11 78.1467 417.776 77.68C417.456 77.2133 417.296 76.7 417.296 76.14C417.296 75.2333 417.663 74.5 418.396 73.94C419.13 73.38 420.136 73 421.416 72.8L424.156 72.4V71.98C424.156 71.4067 424.01 70.9733 423.716 70.68C423.423 70.3867 422.956 70.24 422.316 70.24C421.876 70.24 421.523 70.32 421.256 70.48C420.99 70.64 420.77 70.8067 420.596 70.98C420.436 71.14 420.33 71.2467 420.276 71.3C420.223 71.46 420.123 71.54 419.976 71.54H418.416C418.296 71.54 418.19 71.5 418.096 71.42C418.016 71.34 417.976 71.2333 417.976 71.1C417.99 70.7667 418.15 70.3933 418.456 69.98C418.776 69.5533 419.263 69.1867 419.916 68.88C420.57 68.56 421.376 68.4 422.336 68.4C423.91 68.4 425.056 68.7533 425.776 69.46C426.496 70.1667 426.856 71.0933 426.856 72.24V78.52C426.856 78.6533 426.81 78.7667 426.716 78.86C426.636 78.9533 426.523 79 426.376 79H424.716C424.583 79 424.47 78.9533 424.376 78.86C424.283 78.7667 424.236 78.6533 424.236 78.52V77.74C423.943 78.1667 423.53 78.52 422.996 78.8C422.463 79.0667 421.796 79.2 420.996 79.2ZM421.676 77.28C422.41 77.28 423.01 77.04 423.476 76.56C423.943 76.08 424.176 75.3867 424.176 74.48V74.08L422.176 74.4C420.643 74.64 419.876 75.1533 419.876 75.94C419.876 76.3667 420.05 76.7 420.396 76.94C420.756 77.1667 421.183 77.28 421.676 77.28ZM429.902 79C429.768 79 429.655 78.9533 429.562 78.86C429.468 78.7667 429.422 78.6533 429.422 78.52V69.08C429.422 68.9333 429.468 68.82 429.562 68.74C429.655 68.6467 429.768 68.6 429.902 68.6H431.482C431.628 68.6 431.742 68.6467 431.822 68.74C431.915 68.82 431.962 68.9333 431.962 69.08V69.76C432.682 68.8533 433.648 68.4 434.862 68.4C436.342 68.4 437.375 68.9933 437.962 70.18C438.282 69.6467 438.735 69.22 439.322 68.9C439.908 68.5667 440.542 68.4 441.222 68.4C442.315 68.4 443.208 68.7733 443.902 69.52C444.595 70.2667 444.942 71.3533 444.942 72.78V78.52C444.942 78.6533 444.895 78.7667 444.802 78.86C444.722 78.9533 444.608 79 444.462 79H442.802C442.668 79 442.555 78.9533 442.462 78.86C442.368 78.7667 442.322 78.6533 442.322 78.52V72.94C442.322 72.1 442.142 71.4933 441.782 71.12C441.435 70.7467 440.975 70.56 440.402 70.56C439.882 70.56 439.435 70.7533 439.062 71.14C438.702 71.5133 438.522 72.1133 438.522 72.94V78.52C438.522 78.6533 438.475 78.7667 438.382 78.86C438.302 78.9533 438.188 79 438.042 79H436.362C436.228 79 436.115 78.9533 436.022 78.86C435.928 78.7667 435.882 78.6533 435.882 78.52V72.94C435.882 72.1133 435.702 71.5133 435.342 71.14C434.982 70.7533 434.522 70.56 433.962 70.56C433.442 70.56 432.995 70.7533 432.622 71.14C432.262 71.5133 432.082 72.1133 432.082 72.94V78.52C432.082 78.6533 432.035 78.7667 431.942 78.86C431.862 78.9533 431.748 79 431.602 79H429.902ZM451.448 79.2C450.435 79.2 449.588 79.0467 448.908 78.74C448.228 78.4333 447.721 78.08 447.388 77.68C447.068 77.2667 446.908 76.9133 446.908 76.62C446.908 76.4867 446.948 76.38 447.028 76.3C447.121 76.22 447.228 76.18 447.348 76.18H448.988C449.095 76.18 449.188 76.2333 449.268 76.34C449.335 76.3933 449.481 76.52 449.708 76.72C449.948 76.92 450.215 77.08 450.508 77.2C450.815 77.3067 451.148 77.36 451.508 77.36C452.041 77.36 452.475 77.26 452.808 77.06C453.141 76.8467 453.308 76.5467 453.308 76.16C453.308 75.8933 453.228 75.68 453.068 75.52C452.921 75.3467 452.648 75.1933 452.248 75.06C451.861 74.9133 451.275 74.7533 450.488 74.58C449.355 74.34 448.515 73.9733 447.968 73.48C447.435 72.9867 447.168 72.3333 447.168 71.52C447.168 70.9867 447.328 70.4867 447.648 70.02C447.968 69.54 448.441 69.1533 449.068 68.86C449.708 68.5533 450.468 68.4 451.348 68.4C452.255 68.4 453.035 68.5467 453.688 68.84C454.341 69.12 454.835 69.46 455.168 69.86C455.515 70.26 455.688 70.6133 455.688 70.92C455.688 71.04 455.641 71.1467 455.548 71.24C455.468 71.32 455.368 71.36 455.248 71.36H453.748C453.601 71.36 453.488 71.3067 453.408 71.2C453.315 71.1333 453.161 71.0133 452.948 70.84C452.748 70.6533 452.521 70.5067 452.268 70.4C452.015 70.2933 451.708 70.24 451.348 70.24C450.855 70.24 450.475 70.3467 450.208 70.56C449.941 70.7733 449.808 71.0533 449.808 71.4C449.808 71.64 449.868 71.84 449.988 72C450.121 72.16 450.381 72.3133 450.768 72.46C451.155 72.5933 451.735 72.7333 452.508 72.88C454.908 73.3467 456.108 74.3933 456.108 76.02C456.108 76.9667 455.695 77.7333 454.868 78.32C454.055 78.9067 452.915 79.2 451.448 79.2Z" fill="#1C1C1C" fill-opacity="0.87"/>
<rect x="32" y="144" width="480" height="80" rx="8" fill="white"/>
<path d="M106.04 191C105.907 191 105.793 190.953 105.7 190.86C105.607 190.767 105.56 190.653 105.56 190.52V177.5C105.56 177.353 105.6 177.233 105.68 177.14C105.773 177.047 105.893 177 106.04 177H107.6C107.853 177 108.047 177.113 108.18 177.34L113.9 186.22V177.5C113.9 177.353 113.94 177.233 114.02 177.14C114.113 177.047 114.233 177 114.38 177H116.1C116.247 177 116.367 177.047 116.46 177.14C116.553 177.233 116.6 177.353 116.6 177.5V190.5C116.6 190.647 116.553 190.767 116.46 190.86C116.367 190.953 116.253 191 116.12 191H114.54C114.273 191 114.073 190.887 113.94 190.66L108.24 181.98V190.52C108.24 190.653 108.193 190.767 108.1 190.86C108.02 190.953 107.907 191 107.76 191H106.04ZM124.081 191.2C122.507 191.2 121.294 190.8 120.441 190C119.587 189.2 119.127 188.093 119.061 186.68L119.041 185.8L119.061 184.92C119.127 183.52 119.594 182.42 120.461 181.62C121.327 180.807 122.534 180.4 124.081 180.4C125.614 180.4 126.814 180.807 127.681 181.62C128.547 182.42 129.014 183.52 129.081 184.92C129.094 185.08 129.101 185.373 129.101 185.8C129.101 186.227 129.094 186.52 129.081 186.68C129.014 188.093 128.554 189.2 127.701 190C126.847 190.8 125.641 191.2 124.081 191.2ZM124.081 189.18C124.787 189.18 125.327 188.96 125.701 188.52C126.087 188.08 126.294 187.433 126.321 186.58C126.334 186.447 126.341 186.187 126.341 185.8C126.341 185.413 126.334 185.153 126.321 185.02C126.294 184.167 126.087 183.52 125.701 183.08C125.314 182.627 124.774 182.4 124.081 182.4C123.374 182.4 122.827 182.627 122.441 183.08C122.054 183.52 121.847 184.167 121.821 185.02L121.801 185.8L121.821 186.58C121.847 187.433 122.054 188.08 122.441 188.52C122.827 188.96 123.374 189.18 124.081 189.18ZM139.827 191.2C138.814 191.2 137.967 191.047 137.287 190.74C136.607 190.433 136.1 190.08 135.767 189.68C135.447 189.267 135.287 188.913 135.287 188.62C135.287 188.487 135.327 188.38 135.407 188.3C135.5 188.22 135.607 188.18 135.727 188.18H137.367C137.474 188.18 137.567 188.233 137.647 188.34C137.714 188.393 137.86 188.52 138.087 188.72C138.327 188.92 138.594 189.08 138.887 189.2C139.194 189.307 139.527 189.36 139.887 189.36C140.42 189.36 140.854 189.26 141.187 189.06C141.52 188.847 141.687 188.547 141.687 188.16C141.687 187.893 141.607 187.68 141.447 187.52C141.3 187.347 141.027 187.193 140.627 187.06C140.24 186.913 139.654 186.753 138.867 186.58C137.734 186.34 136.894 185.973 136.347 185.48C135.814 184.987 135.547 184.333 135.547 183.52C135.547 182.987 135.707 182.487 136.027 182.02C136.347 181.54 136.82 181.153 137.447 180.86C138.087 180.553 138.847 180.4 139.727 180.4C140.634 180.4 141.414 180.547 142.067 180.84C142.72 181.12 143.214 181.46 143.547 181.86C143.894 182.26 144.067 182.613 144.067 182.92C144.067 183.04 144.02 183.147 143.927 183.24C143.847 183.32 143.747 183.36 143.627 183.36H142.127C141.98 183.36 141.867 183.307 141.787 183.2C141.694 183.133 141.54 183.013 141.327 182.84C141.127 182.653 140.9 182.507 140.647 182.4C140.394 182.293 140.087 182.24 139.727 182.24C139.234 182.24 138.854 182.347 138.587 182.56C138.32 182.773 138.187 183.053 138.187 183.4C138.187 183.64 138.247 183.84 138.367 184C138.5 184.16 138.76 184.313 139.147 184.46C139.534 184.593 140.114 184.733 140.887 184.88C143.287 185.347 144.487 186.393 144.487 188.02C144.487 188.967 144.074 189.733 143.247 190.32C142.434 190.907 141.294 191.2 139.827 191.2ZM147.031 191C146.898 191 146.784 190.953 146.691 190.86C146.598 190.767 146.551 190.653 146.551 190.52V177.28C146.551 177.133 146.598 177.02 146.691 176.94C146.784 176.847 146.898 176.8 147.031 176.8H148.851C148.998 176.8 149.111 176.847 149.191 176.94C149.284 177.02 149.331 177.133 149.331 177.28V181.84C150.131 180.88 151.204 180.4 152.551 180.4C153.778 180.4 154.758 180.807 155.491 181.62C156.224 182.42 156.591 183.513 156.591 184.9V190.52C156.591 190.653 156.544 190.767 156.451 190.86C156.371 190.953 156.258 191 156.111 191H154.291C154.144 191 154.024 190.953 153.931 190.86C153.838 190.767 153.791 190.653 153.791 190.52V185.02C153.791 184.247 153.598 183.647 153.211 183.22C152.838 182.78 152.298 182.56 151.591 182.56C150.911 182.56 150.364 182.78 149.951 183.22C149.538 183.66 149.331 184.26 149.331 185.02V190.52C149.331 190.653 149.284 190.767 149.191 190.86C149.111 190.953 148.998 191 148.851 191H147.031ZM162.149 191.2C161.469 191.2 160.842 191.067 160.269 190.8C159.709 190.52 159.262 190.147 158.929 189.68C158.609 189.213 158.449 188.7 158.449 188.14C158.449 187.233 158.815 186.5 159.549 185.94C160.282 185.38 161.289 185 162.569 184.8L165.309 184.4V183.98C165.309 183.407 165.162 182.973 164.869 182.68C164.575 182.387 164.109 182.24 163.469 182.24C163.029 182.24 162.675 182.32 162.409 182.48C162.142 182.64 161.922 182.807 161.749 182.98C161.589 183.14 161.482 183.247 161.429 183.3C161.375 183.46 161.275 183.54 161.129 183.54H159.569C159.449 183.54 159.342 183.5 159.249 183.42C159.169 183.34 159.129 183.233 159.129 183.1C159.142 182.767 159.302 182.393 159.609 181.98C159.929 181.553 160.415 181.187 161.069 180.88C161.722 180.56 162.529 180.4 163.489 180.4C165.062 180.4 166.209 180.753 166.929 181.46C167.649 182.167 168.009 183.093 168.009 184.24V190.52C168.009 190.653 167.962 190.767 167.869 190.86C167.789 190.953 167.675 191 167.529 191H165.869C165.735 191 165.622 190.953 165.529 190.86C165.435 190.767 165.389 190.653 165.389 190.52V189.74C165.095 190.167 164.682 190.52 164.149 190.8C163.615 191.067 162.949 191.2 162.149 191.2ZM162.829 189.28C163.562 189.28 164.162 189.04 164.629 188.56C165.095 188.08 165.329 187.387 165.329 186.48V186.08L163.329 186.4C161.795 186.64 161.029 187.153 161.029 187.94C161.029 188.367 161.202 188.7 161.549 188.94C161.909 189.167 162.335 189.28 162.829 189.28ZM174.434 191.2C173.087 191.2 172.054 190.773 171.334 189.92C170.614 189.053 170.221 187.9 170.154 186.46L170.134 185.8L170.154 185.14C170.207 183.727 170.594 182.587 171.314 181.72C172.047 180.84 173.087 180.4 174.434 180.4C175.714 180.4 176.734 180.84 177.494 181.72V177.28C177.494 177.133 177.541 177.02 177.634 176.94C177.727 176.847 177.841 176.8 177.974 176.8H179.714C179.861 176.8 179.974 176.847 180.054 176.94C180.147 177.02 180.194 177.133 180.194 177.28V190.52C180.194 190.653 180.147 190.767 180.054 190.86C179.974 190.953 179.861 191 179.714 191H178.094C177.961 191 177.847 190.953 177.754 190.86C177.661 190.767 177.614 190.653 177.614 190.52V189.78C176.881 190.727 175.821 191.2 174.434 191.2ZM175.194 189.04C175.954 189.04 176.514 188.8 176.874 188.32C177.247 187.827 177.454 187.22 177.494 186.5C177.507 186.34 177.514 186.087 177.514 185.74C177.514 185.38 177.507 185.12 177.494 184.96C177.467 184.293 177.261 183.727 176.874 183.26C176.487 182.793 175.927 182.56 175.194 182.56C173.767 182.56 173.007 183.44 172.914 185.2L172.894 185.8L172.914 186.4C173.007 188.16 173.767 189.04 175.194 189.04ZM184.739 194.8C184.632 194.8 184.532 194.76 184.439 194.68C184.359 194.6 184.319 194.507 184.319 194.4C184.319 194.307 184.346 194.2 184.399 194.08L185.979 190.38L182.139 181.32C182.086 181.2 182.059 181.107 182.059 181.04C182.072 180.92 182.119 180.82 182.199 180.74C182.279 180.647 182.379 180.6 182.499 180.6H184.159C184.399 180.6 184.572 180.727 184.679 180.98L187.339 187.5L190.039 180.98C190.172 180.727 190.359 180.6 190.599 180.6H192.219C192.339 180.6 192.439 180.64 192.519 180.72C192.599 180.8 192.639 180.893 192.639 181C192.639 181.093 192.612 181.2 192.559 181.32L186.899 194.42C186.792 194.673 186.606 194.8 186.339 194.8H184.739ZM198.866 191C198.733 191 198.62 190.953 198.526 190.86C198.433 190.767 198.386 190.653 198.386 190.52V181.1C198.386 180.953 198.433 180.833 198.526 180.74C198.62 180.647 198.733 180.6 198.866 180.6H200.506C200.653 180.6 200.773 180.647 200.866 180.74C200.96 180.833 201.006 180.953 201.006 181.1V181.92C201.673 181.04 202.633 180.6 203.886 180.6H204.726C204.873 180.6 204.986 180.647 205.066 180.74C205.16 180.82 205.206 180.933 205.206 181.08V182.54C205.206 182.673 205.16 182.787 205.066 182.88C204.986 182.973 204.873 183.02 204.726 183.02H203.146C202.52 183.02 202.026 183.2 201.666 183.56C201.306 183.92 201.126 184.413 201.126 185.04V190.52C201.126 190.653 201.08 190.767 200.986 190.86C200.893 190.953 200.78 191 200.646 191H198.866ZM211.129 191.2C209.635 191.2 208.449 190.773 207.569 189.92C206.702 189.067 206.242 187.853 206.189 186.28L206.169 185.78C206.169 184.113 206.602 182.8 207.469 181.84C208.349 180.88 209.562 180.4 211.109 180.4C212.695 180.4 213.915 180.88 214.769 181.84C215.635 182.8 216.069 184.08 216.069 185.68V186.1C216.069 186.233 216.022 186.347 215.929 186.44C215.835 186.533 215.715 186.58 215.569 186.58H208.929V186.74C208.955 187.487 209.155 188.107 209.529 188.6C209.915 189.08 210.442 189.32 211.109 189.32C211.869 189.32 212.489 189.013 212.969 188.4C213.089 188.253 213.182 188.167 213.249 188.14C213.315 188.1 213.429 188.08 213.589 188.08H215.349C215.469 188.08 215.569 188.113 215.649 188.18C215.742 188.247 215.789 188.34 215.789 188.46C215.789 188.78 215.595 189.16 215.209 189.6C214.835 190.027 214.295 190.4 213.589 190.72C212.882 191.04 212.062 191.2 211.129 191.2ZM213.309 184.88V184.84C213.309 184.053 213.109 183.427 212.709 182.96C212.322 182.48 211.789 182.24 211.109 182.24C210.429 182.24 209.895 182.48 209.509 182.96C209.122 183.427 208.929 184.053 208.929 184.84V184.88H213.309ZM222.691 191.2C221.224 191.2 220.051 190.793 219.171 189.98C218.304 189.167 217.844 188.04 217.791 186.6L217.771 185.8L217.791 185C217.844 183.56 218.304 182.433 219.171 181.62C220.051 180.807 221.224 180.4 222.691 180.4C223.744 180.4 224.631 180.587 225.351 180.96C226.084 181.333 226.624 181.793 226.971 182.34C227.331 182.873 227.524 183.387 227.551 183.88C227.564 184.013 227.518 184.127 227.411 184.22C227.318 184.313 227.204 184.36 227.071 184.36H225.291C225.144 184.36 225.038 184.333 224.971 184.28C224.904 184.213 224.838 184.1 224.771 183.94C224.571 183.433 224.304 183.067 223.971 182.84C223.651 182.613 223.238 182.5 222.731 182.5C222.051 182.5 221.518 182.713 221.131 183.14C220.758 183.567 220.558 184.22 220.531 185.1L220.511 185.84L220.531 186.5C220.611 188.233 221.344 189.1 222.731 189.1C223.251 189.1 223.671 188.993 223.991 188.78C224.311 188.553 224.571 188.18 224.771 187.66C224.824 187.513 224.884 187.407 224.951 187.34C225.031 187.273 225.144 187.24 225.291 187.24H227.071C227.204 187.24 227.318 187.287 227.411 187.38C227.518 187.473 227.564 187.587 227.551 187.72C227.524 188.187 227.338 188.693 226.991 189.24C226.644 189.773 226.111 190.233 225.391 190.62C224.671 191.007 223.771 191.2 222.691 191.2ZM234.256 191.2C232.683 191.2 231.47 190.8 230.616 190C229.763 189.2 229.303 188.093 229.236 186.68L229.216 185.8L229.236 184.92C229.303 183.52 229.77 182.42 230.636 181.62C231.503 180.807 232.71 180.4 234.256 180.4C235.79 180.4 236.99 180.807 237.856 181.62C238.723 182.42 239.19 183.52 239.256 184.92C239.27 185.08 239.276 185.373 239.276 185.8C239.276 186.227 239.27 186.52 239.256 186.68C239.19 188.093 238.73 189.2 237.876 190C237.023 190.8 235.816 191.2 234.256 191.2ZM234.256 189.18C234.963 189.18 235.503 188.96 235.876 188.52C236.263 188.08 236.47 187.433 236.496 186.58C236.51 186.447 236.516 186.187 236.516 185.8C236.516 185.413 236.51 185.153 236.496 185.02C236.47 184.167 236.263 183.52 235.876 183.08C235.49 182.627 234.95 182.4 234.256 182.4C233.55 182.4 233.003 182.627 232.616 183.08C232.23 183.52 232.023 184.167 231.996 185.02L231.976 185.8L231.996 186.58C232.023 187.433 232.23 188.08 232.616 188.52C233.003 188.96 233.55 189.18 234.256 189.18ZM241.972 191C241.839 191 241.725 190.953 241.632 190.86C241.539 190.767 241.492 190.653 241.492 190.52V181.08C241.492 180.933 241.539 180.82 241.632 180.74C241.725 180.647 241.839 180.6 241.972 180.6H243.552C243.699 180.6 243.812 180.647 243.892 180.74C243.985 180.82 244.032 180.933 244.032 181.08V181.76C244.752 180.853 245.719 180.4 246.932 180.4C248.412 180.4 249.445 180.993 250.032 182.18C250.352 181.647 250.805 181.22 251.392 180.9C251.979 180.567 252.612 180.4 253.292 180.4C254.385 180.4 255.279 180.773 255.972 181.52C256.665 182.267 257.012 183.353 257.012 184.78V190.52C257.012 190.653 256.965 190.767 256.872 190.86C256.792 190.953 256.679 191 256.532 191H254.872C254.739 191 254.625 190.953 254.532 190.86C254.439 190.767 254.392 190.653 254.392 190.52V184.94C254.392 184.1 254.212 183.493 253.852 183.12C253.505 182.747 253.045 182.56 252.472 182.56C251.952 182.56 251.505 182.753 251.132 183.14C250.772 183.513 250.592 184.113 250.592 184.94V190.52C250.592 190.653 250.545 190.767 250.452 190.86C250.372 190.953 250.259 191 250.112 191H248.432C248.299 191 248.185 190.953 248.092 190.86C247.999 190.767 247.952 190.653 247.952 190.52V184.94C247.952 184.113 247.772 183.513 247.412 183.14C247.052 182.753 246.592 182.56 246.032 182.56C245.512 182.56 245.065 182.753 244.692 183.14C244.332 183.513 244.152 184.113 244.152 184.94V190.52C244.152 190.653 244.105 190.767 244.012 190.86C243.932 190.953 243.819 191 243.672 191H241.972ZM260.038 191C259.905 191 259.792 190.953 259.698 190.86C259.605 190.767 259.558 190.653 259.558 190.52V181.08C259.558 180.933 259.605 180.82 259.698 180.74C259.792 180.647 259.905 180.6 260.038 180.6H261.618C261.765 180.6 261.878 180.647 261.958 180.74C262.052 180.82 262.098 180.933 262.098 181.08V181.76C262.818 180.853 263.785 180.4 264.998 180.4C266.478 180.4 267.512 180.993 268.098 182.18C268.418 181.647 268.872 181.22 269.458 180.9C270.045 180.567 270.678 180.4 271.358 180.4C272.452 180.4 273.345 180.773 274.038 181.52C274.732 182.267 275.078 183.353 275.078 184.78V190.52C275.078 190.653 275.032 190.767 274.938 190.86C274.858 190.953 274.745 191 274.598 191H272.938C272.805 191 272.692 190.953 272.598 190.86C272.505 190.767 272.458 190.653 272.458 190.52V184.94C272.458 184.1 272.278 183.493 271.918 183.12C271.572 182.747 271.112 182.56 270.538 182.56C270.018 182.56 269.572 182.753 269.198 183.14C268.838 183.513 268.658 184.113 268.658 184.94V190.52C268.658 190.653 268.612 190.767 268.518 190.86C268.438 190.953 268.325 191 268.178 191H266.498C266.365 191 266.252 190.953 266.158 190.86C266.065 190.767 266.018 190.653 266.018 190.52V184.94C266.018 184.113 265.838 183.513 265.478 183.14C265.118 182.753 264.658 182.56 264.098 182.56C263.578 182.56 263.132 182.753 262.758 183.14C262.398 183.513 262.218 184.113 262.218 184.94V190.52C262.218 190.653 262.172 190.767 262.078 190.86C261.998 190.953 261.885 191 261.738 191H260.038ZM282.125 191.2C280.631 191.2 279.445 190.773 278.565 189.92C277.698 189.067 277.238 187.853 277.185 186.28L277.165 185.78C277.165 184.113 277.598 182.8 278.465 181.84C279.345 180.88 280.558 180.4 282.105 180.4C283.691 180.4 284.911 180.88 285.765 181.84C286.631 182.8 287.065 184.08 287.065 185.68V186.1C287.065 186.233 287.018 186.347 286.925 186.44C286.831 186.533 286.711 186.58 286.565 186.58H279.925V186.74C279.951 187.487 280.151 188.107 280.525 188.6C280.911 189.08 281.438 189.32 282.105 189.32C282.865 189.32 283.485 189.013 283.965 188.4C284.085 188.253 284.178 188.167 284.245 188.14C284.311 188.1 284.425 188.08 284.585 188.08H286.345C286.465 188.08 286.565 188.113 286.645 188.18C286.738 188.247 286.785 188.34 286.785 188.46C286.785 188.78 286.591 189.16 286.205 189.6C285.831 190.027 285.291 190.4 284.585 190.72C283.878 191.04 283.058 191.2 282.125 191.2ZM284.305 184.88V184.84C284.305 184.053 284.105 183.427 283.705 182.96C283.318 182.48 282.785 182.24 282.105 182.24C281.425 182.24 280.891 182.48 280.505 182.96C280.118 183.427 279.925 184.053 279.925 184.84V184.88H284.305ZM289.667 191C289.534 191 289.421 190.953 289.327 190.86C289.234 190.767 289.187 190.653 289.187 190.52V181.08C289.187 180.933 289.234 180.82 289.327 180.74C289.421 180.647 289.534 180.6 289.667 180.6H291.327C291.474 180.6 291.587 180.647 291.667 180.74C291.761 180.82 291.807 180.933 291.807 181.08V181.9C292.621 180.9 293.734 180.4 295.147 180.4C296.374 180.4 297.347 180.8 298.067 181.6C298.787 182.4 299.147 183.5 299.147 184.9V190.52C299.147 190.653 299.101 190.767 299.007 190.86C298.927 190.953 298.814 191 298.667 191H296.867C296.734 191 296.621 190.953 296.527 190.86C296.434 190.767 296.387 190.653 296.387 190.52V185.02C296.387 184.247 296.194 183.647 295.807 183.22C295.434 182.78 294.894 182.56 294.187 182.56C293.507 182.56 292.961 182.78 292.547 183.22C292.134 183.66 291.927 184.26 291.927 185.02V190.52C291.927 190.653 291.881 190.767 291.787 190.86C291.707 190.953 291.594 191 291.447 191H289.667ZM305.547 191.2C304.201 191.2 303.167 190.773 302.447 189.92C301.727 189.053 301.334 187.9 301.267 186.46L301.247 185.8L301.267 185.14C301.321 183.727 301.707 182.587 302.427 181.72C303.161 180.84 304.201 180.4 305.547 180.4C306.827 180.4 307.847 180.84 308.607 181.72V177.28C308.607 177.133 308.654 177.02 308.747 176.94C308.841 176.847 308.954 176.8 309.087 176.8H310.827C310.974 176.8 311.087 176.847 311.167 176.94C311.261 177.02 311.307 177.133 311.307 177.28V190.52C311.307 190.653 311.261 190.767 311.167 190.86C311.087 190.953 310.974 191 310.827 191H309.207C309.074 191 308.961 190.953 308.867 190.86C308.774 190.767 308.727 190.653 308.727 190.52V189.78C307.994 190.727 306.934 191.2 305.547 191.2ZM306.307 189.04C307.067 189.04 307.627 188.8 307.987 188.32C308.361 187.827 308.567 187.22 308.607 186.5C308.621 186.34 308.627 186.087 308.627 185.74C308.627 185.38 308.621 185.12 308.607 184.96C308.581 184.293 308.374 183.727 307.987 183.26C307.601 182.793 307.041 182.56 306.307 182.56C304.881 182.56 304.121 183.44 304.027 185.2L304.007 185.8L304.027 186.4C304.121 188.16 304.881 189.04 306.307 189.04ZM316.992 191.2C316.312 191.2 315.686 191.067 315.112 190.8C314.552 190.52 314.106 190.147 313.772 189.68C313.452 189.213 313.292 188.7 313.292 188.14C313.292 187.233 313.659 186.5 314.392 185.94C315.126 185.38 316.132 185 317.412 184.8L320.152 184.4V183.98C320.152 183.407 320.006 182.973 319.712 182.68C319.419 182.387 318.952 182.24 318.312 182.24C317.872 182.24 317.519 182.32 317.252 182.48C316.986 182.64 316.766 182.807 316.592 182.98C316.432 183.14 316.326 183.247 316.272 183.3C316.219 183.46 316.119 183.54 315.972 183.54H314.412C314.292 183.54 314.186 183.5 314.092 183.42C314.012 183.34 313.972 183.233 313.972 183.1C313.986 182.767 314.146 182.393 314.452 181.98C314.772 181.553 315.259 181.187 315.912 180.88C316.566 180.56 317.372 180.4 318.332 180.4C319.906 180.4 321.052 180.753 321.772 181.46C322.492 182.167 322.852 183.093 322.852 184.24V190.52C322.852 190.653 322.806 190.767 322.712 190.86C322.632 190.953 322.519 191 322.372 191H320.712C320.579 191 320.466 190.953 320.372 190.86C320.279 190.767 320.232 190.653 320.232 190.52V189.74C319.939 190.167 319.526 190.52 318.992 190.8C318.459 191.067 317.792 191.2 316.992 191.2ZM317.672 189.28C318.406 189.28 319.006 189.04 319.472 188.56C319.939 188.08 320.172 187.387 320.172 186.48V186.08L318.172 186.4C316.639 186.64 315.872 187.153 315.872 187.94C315.872 188.367 316.046 188.7 316.392 188.94C316.752 189.167 317.179 189.28 317.672 189.28ZM330.04 191C328.827 191 327.913 190.687 327.3 190.06C326.687 189.42 326.38 188.487 326.38 187.26V182.74H324.8C324.667 182.74 324.553 182.693 324.46 182.6C324.367 182.507 324.32 182.393 324.32 182.26V181.08C324.32 180.947 324.367 180.833 324.46 180.74C324.553 180.647 324.667 180.6 324.8 180.6H326.38V177.28C326.38 177.133 326.427 177.02 326.52 176.94C326.613 176.847 326.727 176.8 326.86 176.8H328.52C328.667 176.8 328.78 176.847 328.86 176.94C328.953 177.02 329 177.133 329 177.28V180.6H331.5C331.633 180.6 331.747 180.647 331.84 180.74C331.933 180.833 331.98 180.947 331.98 181.08V182.26C331.98 182.393 331.933 182.507 331.84 182.6C331.747 182.693 331.633 182.74 331.5 182.74H329V187.04C329 187.613 329.1 188.047 329.3 188.34C329.5 188.633 329.827 188.78 330.28 188.78H331.68C331.827 188.78 331.94 188.827 332.02 188.92C332.113 189 332.16 189.113 332.16 189.26V190.52C332.16 190.653 332.113 190.767 332.02 190.86C331.94 190.953 331.827 191 331.68 191H330.04ZM334.333 178.9C334.2 178.9 334.087 178.853 333.993 178.76C333.9 178.667 333.853 178.553 333.853 178.42V176.96C333.853 176.813 333.9 176.693 333.993 176.6C334.087 176.507 334.2 176.46 334.333 176.46H336.173C336.32 176.46 336.44 176.507 336.533 176.6C336.627 176.693 336.673 176.813 336.673 176.96V178.42C336.673 178.553 336.62 178.667 336.513 178.76C336.42 178.853 336.307 178.9 336.173 178.9H334.333ZM334.413 191C334.28 191 334.167 190.953 334.073 190.86C333.98 190.767 333.933 190.653 333.933 190.52V181.08C333.933 180.933 333.98 180.82 334.073 180.74C334.167 180.647 334.28 180.6 334.413 180.6H336.113C336.247 180.6 336.36 180.647 336.453 180.74C336.547 180.833 336.593 180.947 336.593 181.08V190.52C336.593 190.653 336.547 190.767 336.453 190.86C336.36 190.953 336.247 191 336.113 191H334.413ZM343.846 191.2C342.273 191.2 341.06 190.8 340.206 190C339.353 189.2 338.893 188.093 338.826 186.68L338.806 185.8L338.826 184.92C338.893 183.52 339.36 182.42 340.226 181.62C341.093 180.807 342.3 180.4 343.846 180.4C345.38 180.4 346.58 180.807 347.446 181.62C348.313 182.42 348.78 183.52 348.846 184.92C348.86 185.08 348.866 185.373 348.866 185.8C348.866 186.227 348.86 186.52 348.846 186.68C348.78 188.093 348.32 189.2 347.466 190C346.613 190.8 345.406 191.2 343.846 191.2ZM343.846 189.18C344.553 189.18 345.093 188.96 345.466 188.52C345.853 188.08 346.06 187.433 346.086 186.58C346.1 186.447 346.106 186.187 346.106 185.8C346.106 185.413 346.1 185.153 346.086 185.02C346.06 184.167 345.853 183.52 345.466 183.08C345.08 182.627 344.54 182.4 343.846 182.4C343.14 182.4 342.593 182.627 342.206 183.08C341.82 183.52 341.613 184.167 341.586 185.02L341.566 185.8L341.586 186.58C341.613 187.433 341.82 188.08 342.206 188.52C342.593 188.96 343.14 189.18 343.846 189.18ZM351.562 191C351.428 191 351.315 190.953 351.222 190.86C351.128 190.767 351.082 190.653 351.082 190.52V181.08C351.082 180.933 351.128 180.82 351.222 180.74C351.315 180.647 351.428 180.6 351.562 180.6H353.222C353.368 180.6 353.482 180.647 353.562 180.74C353.655 180.82 353.702 180.933 353.702 181.08V181.9C354.515 180.9 355.628 180.4 357.042 180.4C358.268 180.4 359.242 180.8 359.962 181.6C360.682 182.4 361.042 183.5 361.042 184.9V190.52C361.042 190.653 360.995 190.767 360.902 190.86C360.822 190.953 360.708 191 360.562 191H358.762C358.628 191 358.515 190.953 358.422 190.86C358.328 190.767 358.282 190.653 358.282 190.52V185.02C358.282 184.247 358.088 183.647 357.702 183.22C357.328 182.78 356.788 182.56 356.082 182.56C355.402 182.56 354.855 182.78 354.442 183.22C354.028 183.66 353.822 184.26 353.822 185.02V190.52C353.822 190.653 353.775 190.767 353.682 190.86C353.602 190.953 353.488 191 353.342 191H351.562ZM367.542 191.2C366.528 191.2 365.682 191.047 365.002 190.74C364.322 190.433 363.815 190.08 363.482 189.68C363.162 189.267 363.002 188.913 363.002 188.62C363.002 188.487 363.042 188.38 363.122 188.3C363.215 188.22 363.322 188.18 363.442 188.18H365.082C365.188 188.18 365.282 188.233 365.362 188.34C365.428 188.393 365.575 188.52 365.802 188.72C366.042 188.92 366.308 189.08 366.602 189.2C366.908 189.307 367.242 189.36 367.602 189.36C368.135 189.36 368.568 189.26 368.902 189.06C369.235 188.847 369.402 188.547 369.402 188.16C369.402 187.893 369.322 187.68 369.162 187.52C369.015 187.347 368.742 187.193 368.342 187.06C367.955 186.913 367.368 186.753 366.582 186.58C365.448 186.34 364.608 185.973 364.062 185.48C363.528 184.987 363.262 184.333 363.262 183.52C363.262 182.987 363.422 182.487 363.742 182.02C364.062 181.54 364.535 181.153 365.162 180.86C365.802 180.553 366.562 180.4 367.442 180.4C368.348 180.4 369.128 180.547 369.782 180.84C370.435 181.12 370.928 181.46 371.262 181.86C371.608 182.26 371.782 182.613 371.782 182.92C371.782 183.04 371.735 183.147 371.642 183.24C371.562 183.32 371.462 183.36 371.342 183.36H369.842C369.695 183.36 369.582 183.307 369.502 183.2C369.408 183.133 369.255 183.013 369.042 182.84C368.842 182.653 368.615 182.507 368.362 182.4C368.108 182.293 367.802 182.24 367.442 182.24C366.948 182.24 366.568 182.347 366.302 182.56C366.035 182.773 365.902 183.053 365.902 183.4C365.902 183.64 365.962 183.84 366.082 184C366.215 184.16 366.475 184.313 366.862 184.46C367.248 184.593 367.828 184.733 368.602 184.88C371.002 185.347 372.202 186.393 372.202 188.02C372.202 188.967 371.788 189.733 370.962 190.32C370.148 190.907 369.008 191.2 367.542 191.2Z" fill="#1C1C1C" fill-opacity="0.87"/>
<circle cx="72" cy="184" r="16" fill="#FF4D00"/>
<rect x="76.2427" y="176.929" width="4" height="16" rx="2" transform="rotate(45 76.2427 176.929)" fill="white"/>
<rect x="79.0713" y="188.243" width="4" height="16" rx="2" transform="rotate(135 79.0713 188.243)" fill="white"/>
</svg>
