<svg width="64" height="64" viewBox="0 0 64 64" fill="none" xmlns="http://www.w3.org/2000/svg">
<rect width="64" height="64" rx="8" fill="#7A3CDF"/>
<rect x="16" y="20" width="32" height="24" rx="4" fill="white"/>
<path d="M16.7071 19.2929C16.3166 18.9024 15.6834 18.9024 15.2929 19.2929C14.9024 19.6834 14.9024 20.3166 15.2929 20.7071L16.7071 19.2929ZM48.7071 20.7071C49.0976 20.3166 49.0976 19.6834 48.7071 19.2929C48.3166 18.9024 47.6834 18.9024 47.2929 19.2929L48.7071 20.7071ZM15.2929 20.7071L28.4645 33.8787L29.8787 32.4645L16.7071 19.2929L15.2929 20.7071ZM35.5355 33.8787L48.7071 20.7071L47.2929 19.2929L34.1213 32.4645L35.5355 33.8787ZM28.4645 33.8787C30.4171 35.8313 33.5829 35.8313 35.5355 33.8787L34.1213 32.4645C32.9497 33.636 31.0503 33.636 29.8787 32.4645L28.4645 33.8787Z" fill="#7A3CDF"/>
<circle cx="48" cy="20" r="9" fill="white" stroke="#7A3CDF" stroke-width="2"/>
<path d="M45 20L47 22L51 18" stroke="#7A3CDF" stroke-width="2" stroke-linecap="round" stroke-linejoin="round"/>
</svg>
