<svg width="64" height="64" viewBox="0 0 64 64" fill="none" xmlns="http://www.w3.org/2000/svg">
<rect width="64" height="64" rx="8" fill="#27B66A"/>
<g clip-path="url(#clip0)">
<path d="M33.3733 18.4923L18.72 16.2657C18.04 16.159 17.3467 16.3457 16.8267 16.7857C16.3067 17.239 16 17.8923 16 18.5723V46.6656C16 47.399 16.6 47.999 17.3333 47.999H21.6667V40.999C21.6667 39.7056 22.7067 38.6656 24 38.6656H27.3333C28.6267 38.6656 29.6667 39.7056 29.6667 40.999V47.999H35.3333V20.799C35.3333 19.6523 34.5067 18.679 33.3733 18.4923ZM23.3333 35.6656H21.3333C20.7813 35.6656 20.3333 35.2176 20.3333 34.6656C20.3333 34.1136 20.7813 33.6656 21.3333 33.6656H23.3333C23.8853 33.6656 24.3333 34.1136 24.3333 34.6656C24.3333 35.2176 23.8853 35.6656 23.3333 35.6656ZM23.3333 31.6657H21.3333C20.7813 31.6657 20.3333 31.2177 20.3333 30.6657C20.3333 30.1137 20.7813 29.6657 21.3333 29.6657H23.3333C23.8853 29.6657 24.3333 30.1137 24.3333 30.6657C24.3333 31.2177 23.8853 31.6657 23.3333 31.6657ZM23.3333 27.6657H21.3333C20.7813 27.6657 20.3333 27.2177 20.3333 26.6657C20.3333 26.1137 20.7813 25.6657 21.3333 25.6657H23.3333C23.8853 25.6657 24.3333 26.1137 24.3333 26.6657C24.3333 27.2177 23.8853 27.6657 23.3333 27.6657ZM23.3333 23.6657H21.3333C20.7813 23.6657 20.3333 23.2177 20.3333 22.6657C20.3333 22.1137 20.7813 21.6657 21.3333 21.6657H23.3333C23.8853 21.6657 24.3333 22.1137 24.3333 22.6657C24.3333 23.2177 23.8853 23.6657 23.3333 23.6657ZM30 35.6656H28C27.448 35.6656 27 35.2176 27 34.6656C27 34.1136 27.448 33.6656 28 33.6656H30C30.552 33.6656 31 34.1136 31 34.6656C31 35.2176 30.552 35.6656 30 35.6656ZM30 31.6657H28C27.448 31.6657 27 31.2177 27 30.6657C27 30.1137 27.448 29.6657 28 29.6657H30C30.552 29.6657 31 30.1137 31 30.6657C31 31.2177 30.552 31.6657 30 31.6657ZM30 27.6657H28C27.448 27.6657 27 27.2177 27 26.6657C27 26.1137 27.448 25.6657 28 25.6657H30C30.552 25.6657 31 26.1137 31 26.6657C31 27.2177 30.552 27.6657 30 27.6657ZM30 23.6657H28C27.448 23.6657 27 23.2177 27 22.6657C27 22.1137 27.448 21.6657 28 21.6657H30C30.552 21.6657 31 22.1137 31 22.6657C31 23.2177 30.552 23.6657 30 23.6657Z" fill="white"/>
<path d="M46.1594 30.4568L36.666 28.4688V48.0008H45.666C46.9527 48.0008 47.9994 46.9541 47.9994 45.6674V32.7368C47.9994 31.6354 47.2487 30.6981 46.1594 30.4568ZM42.9994 44.0008H40.9994C40.4473 44.0008 39.9993 43.5528 39.9993 43.0008C39.9993 42.4488 40.4473 42.0008 40.9994 42.0008H42.9994C43.5514 42.0008 43.9994 42.4488 43.9994 43.0008C43.9994 43.5528 43.5514 44.0008 42.9994 44.0008ZM42.9994 40.0008H40.9994C40.4473 40.0008 39.9993 39.5528 39.9993 39.0008C39.9993 38.4488 40.4473 38.0008 40.9994 38.0008H42.9994C43.5514 38.0008 43.9994 38.4488 43.9994 39.0008C43.9994 39.5528 43.5514 40.0008 42.9994 40.0008ZM42.9994 36.0008H40.9994C40.4473 36.0008 39.9993 35.5528 39.9993 35.0008C39.9993 34.4488 40.4473 34.0008 40.9994 34.0008H42.9994C43.5514 34.0008 43.9994 34.4488 43.9994 35.0008C43.9994 35.5528 43.5514 36.0008 42.9994 36.0008Z" fill="white"/>
</g>
<defs>
<clipPath id="clip0">
<rect width="32" height="32" fill="white" transform="translate(16 16)"/>
</clipPath>
</defs>
</svg>
