<svg width="32" height="32" viewBox="0 0 32 32" fill="none" xmlns="http://www.w3.org/2000/svg">
<rect width="32" height="32" rx="6" fill="#F1F4F7"/>
<g clip-path="url(#clip0)">
<path d="M23.9963 23V22.9993H24.0003V17.1313C24.0003 14.2606 23.3823 12.0493 20.0263 12.0493C18.413 12.0493 17.3303 12.9347 16.8883 13.774H16.8417V12.3173H13.6597V22.9993H16.973V17.71C16.973 16.3173 17.237 14.9707 18.9617 14.9707C20.661 14.9707 20.6863 16.56 20.6863 17.7993V23H23.9963Z" fill="#14042E"/>
<path d="M8.26416 12.3181H11.5815V23.0001H8.26416V12.3181Z" fill="#14042E"/>
<path d="M9.92133 7C8.86067 7 8 7.86067 8 8.92133C8 9.982 8.86067 10.8607 9.92133 10.8607C10.982 10.8607 11.8427 9.982 11.8427 8.92133C11.842 7.86067 10.9813 7 9.92133 7V7Z" fill="#14042E"/>
</g>
<defs>
<clipPath id="clip0">
<rect width="16" height="16" fill="white" transform="translate(8 7)"/>
</clipPath>
</defs>
</svg>
