<svg width="152" height="40" viewBox="0 0 152 40" fill="none" xmlns="http://www.w3.org/2000/svg">
<path d="M19.9529 39.9085C17.251 39.9091 14.5771 39.361 12.0935 38.2974C9.60991 37.2339 7.3683 35.677 5.50468 33.7212C3.64107 31.7655 2.19429 29.4517 1.25212 26.9201C0.309955 24.3886 -0.10797 21.6921 0.0237036 18.9942C0.256256 14.0608 2.38069 9.37845 6.00715 5.80547C9.63361 2.23249 14.3482 0.175277 19.2842 0.01186C22.6891 -0.105589 26.0673 0.6509 29.0966 2.20919C32.126 3.76748 34.7056 6.07561 36.5893 8.91348C36.8697 9.34381 36.9688 9.86738 36.865 10.3704C36.7613 10.8733 36.4632 11.315 36.0355 11.5994C35.6077 11.8839 35.085 11.988 34.5809 11.8892C34.0768 11.7904 33.6321 11.4966 33.3435 11.0718C30.2333 6.39994 25.0252 3.72113 19.4138 3.90736C11.2528 4.17746 4.30156 11.0268 3.91788 19.1792C3.70445 23.7191 5.33663 27.9975 8.51773 31.2246C11.6988 34.4516 15.9489 36.1505 20.4883 36.0056C28.0552 35.7639 34.6142 29.7501 35.8226 22.4019C33.6883 24.2229 31.1913 25.1769 28.5333 25.18C28.0157 25.1792 27.5196 24.9733 27.1537 24.6074C26.7877 24.2416 26.5818 23.7456 26.5809 23.2282V18.9159C25.3071 19.2988 24.0987 20.0653 22.9724 21.2074C22.1304 22.0599 21.4158 23.0291 20.8504 24.0854C20.6546 24.4798 20.3311 24.7964 19.9326 24.9838C19.534 25.1712 19.0838 25.2184 18.655 25.1177C18.2262 25.0169 17.8441 24.7742 17.5708 24.429C17.2974 24.0837 17.1489 23.6562 17.1493 23.2159V18.9122C15.8663 19.2939 14.6535 20.0604 13.5284 21.2049C12.6908 22.055 11.9814 23.0224 11.4225 24.0768C11.2273 24.4712 10.9044 24.7882 10.5063 24.976C10.1082 25.1639 9.65831 25.2118 9.2296 25.1118C8.80089 25.0118 8.41859 24.7698 8.14479 24.4252C7.87099 24.0806 7.72177 23.6535 7.72137 23.2134V16.6767C7.72137 16.4208 7.77179 16.1674 7.86975 15.931C7.96771 15.6946 8.11129 15.4798 8.29229 15.2988C8.4733 15.1179 8.68818 14.9743 8.92467 14.8764C9.16117 14.7785 9.41464 14.7281 9.67062 14.7281C9.9266 14.7281 10.1801 14.7785 10.4166 14.8764C10.6531 14.9743 10.8679 15.1179 11.0489 15.2988C11.2299 15.4798 11.3735 15.6946 11.4715 15.931C11.5694 16.1674 11.6199 16.4208 11.6199 16.6767V17.6523C13.8405 15.7357 16.4023 14.7287 19.0979 14.7274C19.6155 14.7283 20.1116 14.9341 20.4775 15.3C20.8435 15.6658 21.0494 16.1618 21.0503 16.6792V17.6659C23.2752 15.7394 25.8401 14.7274 28.5283 14.7262C29.0459 14.727 29.542 14.9329 29.9079 15.2988C30.2739 15.6646 30.4799 16.1606 30.4807 16.678V20.9946C31.7403 20.6246 32.9117 19.8846 33.9794 18.7808C34.7648 17.9696 35.4239 17.0452 35.9349 16.0385C36.1101 15.6608 36.4016 15.3491 36.7667 15.1488C37.1319 14.9485 37.5515 14.8702 37.9643 14.9253C38.3771 14.9804 38.7614 15.1661 39.0612 15.4551C39.3609 15.7441 39.5604 16.1214 39.6304 16.5318V16.5392C39.6699 16.7779 39.7026 16.9807 39.7322 17.1929C39.8659 18.1721 39.9277 19.1597 39.9172 20.148C39.8921 22.7226 39.3503 25.266 38.3239 27.6275C36.3044 32.2731 32.6468 36.0141 28.0472 38.1387C25.7116 39.2166 23.1834 39.8153 20.6123 39.8993C20.3923 39.9054 20.1725 39.9085 19.9529 39.9085Z" fill="white"/>
<path d="M69.2728 14.3624C70.1055 15.3022 70.5221 16.8368 70.5225 18.9664V25.677C70.5225 26.3553 70.3189 26.8692 69.9118 27.2187C69.5047 27.5681 68.9818 27.7424 68.3432 27.7416C67.7226 27.7416 67.1995 27.5673 66.7739 27.2187C66.3483 26.8701 66.1351 26.3562 66.1342 25.677V18.9084C66.1342 17.9789 65.9745 17.3255 65.6549 16.9481C65.3354 16.5707 64.8465 16.3817 64.1881 16.3813C63.3738 16.3813 62.7247 16.6621 62.2407 17.2237C61.7567 17.7853 61.5147 18.5697 61.5147 19.5769V25.677C61.5147 26.3553 61.3111 26.8692 60.904 27.2187C60.4969 27.5681 59.974 27.7424 59.3353 27.7416C58.7148 27.7416 58.1917 27.5673 57.7661 27.2187C57.3404 26.8701 57.1272 26.3562 57.1264 25.677V18.9084C57.1264 17.9789 56.9666 17.3255 56.6471 16.9481C56.3276 16.5707 55.8384 16.3817 55.1796 16.3813C54.3662 16.3813 53.7173 16.6621 53.2328 17.2237C52.7484 17.7853 52.5064 18.5697 52.5068 19.5769V25.677C52.5068 26.3553 52.2985 26.8692 51.8819 27.2187C51.4653 27.5681 50.9472 27.7424 50.3275 27.7416C49.7077 27.7416 49.1849 27.5673 48.7588 27.2187C48.3328 26.8701 48.1196 26.3562 48.1191 25.677V15.016C48.1191 14.3772 48.3371 13.8838 48.773 13.536C49.2089 13.1882 49.7369 13.0137 50.3571 13.0125C50.9381 13.0125 51.4224 13.1819 51.8098 13.5206C52.1971 13.8594 52.3908 14.3291 52.3908 14.9297V15.2201C52.8333 14.5052 53.4607 13.9232 54.2068 13.5354C54.9528 13.1477 55.8008 12.9529 56.7507 12.9508C57.7788 12.9508 58.6457 13.159 59.3514 13.5755C60.057 13.9919 60.6044 14.6649 60.9934 15.5945C61.4346 14.7855 62.0939 14.1163 62.8964 13.6631C63.7189 13.1882 64.6536 12.9508 65.7006 12.9508C67.2493 12.9508 68.44 13.4213 69.2728 14.3624Z" fill="white"/>
<path d="M84.3105 13.3602C84.6208 13.1692 84.9782 13.0686 85.3425 13.0697C85.885 13.0634 86.4112 13.2545 86.823 13.6075C87.2486 13.9659 87.4618 14.3976 87.4626 14.9025C87.4593 15.1858 87.3896 15.4644 87.2591 15.7159L79.4424 31.7493C79.2487 32.1554 78.9871 32.4603 78.6577 32.6638C78.3445 32.8639 77.9808 32.9709 77.6091 32.9721C77.0863 32.9791 76.5793 32.7929 76.1854 32.4492C75.7791 32.1005 75.5757 31.6744 75.5753 31.1708C75.5736 30.8684 75.6434 30.5699 75.7789 30.2995L77.6967 26.3195L72.5281 15.7134C72.417 15.4666 72.3576 15.1996 72.3535 14.929C72.3535 14.406 72.5811 13.9606 73.0364 13.5927C73.4733 13.2313 74.0238 13.0358 74.5908 13.0407C74.9709 13.0387 75.3438 13.1445 75.666 13.346C75.995 13.5487 76.2565 13.8535 76.4506 14.2605L80.0537 22.1039L83.5697 14.2605C83.7437 13.8543 83.9906 13.5542 84.3105 13.3602Z" fill="white"/>
<path d="M92.0396 26.8678C91.0231 26.2684 90.2386 25.4164 89.6863 24.3117C89.1341 23.207 88.8579 21.9289 88.8579 20.4773C88.8579 19.0252 89.1437 17.7374 89.7153 16.6138C90.2869 15.4903 91.086 14.6187 92.1124 13.9991C93.1405 13.38 94.3222 13.0702 95.6574 13.0698C96.3993 13.0707 97.1376 13.1732 97.8516 13.3745C98.5327 13.5568 99.1767 13.8567 99.7546 14.2606C100.104 14.4929 100.35 14.7204 100.495 14.9433C100.639 15.1629 100.715 15.4204 100.713 15.6833C100.723 15.9251 100.646 16.1624 100.495 16.3517C100.427 16.4361 100.341 16.5036 100.242 16.5489C100.144 16.5943 100.037 16.6163 99.9285 16.6132C99.776 16.6089 99.6267 16.569 99.4924 16.4967C99.3555 16.4302 99.2243 16.3527 99.1001 16.2648C99.0306 16.2117 98.9579 16.1631 98.8823 16.1193C98.4268 15.8162 97.9454 15.5537 97.4438 15.3349C96.9886 15.142 96.4318 15.0452 95.7734 15.0444C94.3592 15.0444 93.2598 15.5238 92.4751 16.4825C91.6905 17.4412 91.2982 18.7726 91.2982 20.4766C91.2982 22.1811 91.6905 23.4979 92.4751 24.427C93.2598 25.3561 94.3592 25.8211 95.7734 25.8219C96.4314 25.8219 96.9979 25.7251 97.4728 25.5315C97.9784 25.321 98.4606 25.0581 98.9113 24.7471C99.1086 24.6206 99.3122 24.5043 99.5214 24.3987C99.6728 24.3136 99.8415 24.2639 100.015 24.2531C100.119 24.2524 100.221 24.2755 100.314 24.3209C100.408 24.3663 100.489 24.4325 100.553 24.5146C100.703 24.704 100.78 24.9409 100.771 25.1824C100.773 25.4253 100.702 25.6632 100.567 25.8651C100.431 26.0686 100.179 26.2961 99.8113 26.5477C99.2693 26.9178 98.6157 27.2131 97.8504 27.4339C97.1001 27.6544 96.3223 27.767 95.5402 27.7681C94.2235 27.7685 93.0566 27.4684 92.0396 26.8678Z" fill="white"/>
<path d="M103.677 9.67067C103.386 9.39974 103.241 9.04146 103.242 8.59581C103.242 8.17031 103.387 7.82189 103.677 7.55056C103.968 7.27922 104.345 7.14355 104.81 7.14355C105.275 7.14355 105.653 7.27922 105.944 7.55056C106.235 7.82189 106.38 8.17031 106.38 8.59581C106.38 9.04187 106.234 9.40015 105.944 9.67067C105.654 9.94118 105.276 10.0768 104.81 10.0777C104.345 10.0777 103.968 9.942 103.677 9.67067ZM103.954 27.4055C103.73 27.202 103.619 26.9162 103.619 26.5483V14.2901C103.619 13.9201 103.731 13.6344 103.954 13.433C104.176 13.2315 104.462 13.1298 104.81 13.1277C105.159 13.1277 105.44 13.2295 105.653 13.433C105.866 13.6365 105.972 13.9222 105.973 14.2901V26.5483C105.973 26.9364 105.866 27.2268 105.653 27.4196C105.44 27.6125 105.159 27.7095 104.81 27.7107C104.462 27.7107 104.176 27.609 103.954 27.4055Z" fill="white"/>
<path d="M118.322 14.1156C118.322 14.4252 118.235 14.6719 118.061 14.8556C117.887 15.0394 117.586 15.1508 117.16 15.1899L116.288 15.2768C114.99 15.3936 114.027 15.8534 113.397 16.6563C112.767 17.4592 112.453 18.4029 112.453 19.4874V26.5483C112.453 26.9364 112.346 27.2268 112.133 27.4197C111.92 27.6125 111.639 27.7095 111.29 27.7107C110.941 27.7107 110.655 27.6079 110.433 27.4024C110.21 27.1968 110.099 26.9111 110.099 26.5452V14.2901C110.099 13.9201 110.215 13.6344 110.448 13.433C110.68 13.2292 110.981 13.1203 111.29 13.1277C111.435 13.1243 111.579 13.1494 111.713 13.2018C111.848 13.2542 111.971 13.3328 112.075 13.433C112.288 13.6361 112.394 13.9119 112.395 14.2605V15.8873C112.802 15.0351 113.377 14.3863 114.122 13.9411C114.866 13.4959 115.723 13.2344 116.693 13.1567L117.1 13.1277C117.915 13.0698 118.322 13.3991 118.322 14.1156Z" fill="white"/>
<path d="M122.405 26.8678C121.388 26.2684 120.604 25.4164 120.051 24.3117C119.498 23.207 119.222 21.9289 119.223 20.4773C119.223 19.0252 119.509 17.7374 120.081 16.6138C120.652 15.4903 121.451 14.6187 122.478 13.9991C123.506 13.38 124.687 13.0702 126.023 13.0698C126.765 13.0707 127.503 13.1732 128.217 13.3745C128.898 13.5569 129.542 13.8568 130.12 14.2606C130.469 14.4929 130.715 14.7204 130.86 14.9433C131.005 15.1629 131.081 15.4204 131.078 15.6833C131.088 15.9251 131.011 16.1624 130.86 16.3517C130.792 16.4361 130.706 16.5036 130.607 16.549C130.509 16.5944 130.401 16.6163 130.293 16.6132C130.141 16.6088 129.992 16.5689 129.858 16.4967C129.721 16.4304 129.589 16.3528 129.465 16.2648C129.396 16.212 129.323 16.1634 129.248 16.1193C128.793 15.8166 128.313 15.5544 127.812 15.3355C127.357 15.1427 126.8 15.0458 126.141 15.045C124.727 15.045 123.628 15.5244 122.843 16.4831C122.059 17.4418 121.666 18.7732 121.666 20.4773C121.666 22.1817 122.059 23.4985 122.843 24.4276C123.628 25.3568 124.727 25.8217 126.141 25.8225C126.799 25.8225 127.366 25.7257 127.841 25.5321C128.347 25.3216 128.829 25.0587 129.28 24.7477C129.477 24.6211 129.68 24.5048 129.89 24.3993C130.041 24.3143 130.21 24.2645 130.383 24.2537C130.487 24.253 130.589 24.2762 130.683 24.3215C130.776 24.3669 130.857 24.4332 130.92 24.5152C131.071 24.7044 131.149 24.9414 131.139 25.1831C131.141 25.4259 131.07 25.6639 130.935 25.8657C130.8 26.0692 130.548 26.2968 130.18 26.5484C129.638 26.9184 128.984 27.2137 128.219 27.4345C127.468 27.655 126.69 27.7676 125.908 27.7688C124.589 27.7688 123.421 27.4684 122.405 26.8678Z" fill="white"/>
<path d="M134.319 27.4054C134.095 27.2019 133.984 26.9162 133.984 26.5483V8.10245C133.984 7.73492 134.096 7.44919 134.319 7.24528C134.542 7.04137 134.827 6.93859 135.176 6.93695C135.481 6.92876 135.778 7.03929 136.003 7.24528C136.226 7.45084 136.337 7.73656 136.338 8.10245V26.5483C136.338 26.9183 136.226 27.204 136.003 27.4054C135.778 27.6114 135.481 27.7219 135.176 27.7138C134.827 27.7117 134.541 27.6089 134.319 27.4054Z" fill="white"/>
<path d="M151.652 24.5442C151.811 24.7298 151.893 24.9685 151.884 25.2126C151.884 25.6969 151.545 26.1422 150.867 26.5483C150.176 26.9527 149.433 27.2606 148.658 27.4635C147.919 27.6632 147.157 27.7669 146.392 27.7718C144.203 27.7718 142.474 27.1231 141.205 25.8256C139.937 24.5281 139.302 22.7367 139.302 20.4513C139.302 18.9993 139.583 17.7162 140.144 16.6021C140.706 15.488 141.496 14.6213 142.513 14.0022C143.53 13.3831 144.687 13.0733 145.985 13.0729C147.825 13.0729 149.288 13.6731 150.373 14.8735C151.458 16.074 152.001 17.701 152 19.7545C152 20.1418 151.923 20.4223 151.768 20.5962C151.612 20.7708 151.361 20.8577 151.012 20.8577H141.656C141.83 24.1877 143.409 25.8527 146.392 25.8527C147.148 25.8527 147.797 25.751 148.339 25.5475C148.939 25.3159 149.522 25.0388 150.081 24.7187C150.584 24.4276 150.923 24.2823 151.098 24.2827C151.204 24.2826 151.308 24.3061 151.404 24.3513C151.5 24.3965 151.584 24.4624 151.652 24.5442ZM143.036 16.0619C142.29 16.8364 141.849 17.9306 141.714 19.3444H149.937C149.898 17.9113 149.539 16.8122 148.862 16.0471C148.184 15.282 147.235 14.8997 146.014 14.9001C144.774 14.9001 143.782 15.2873 143.036 16.0619Z" fill="white"/>
</svg>
