<svg width="32" height="32" viewBox="0 0 32 32" fill="none" xmlns="http://www.w3.org/2000/svg">
<rect width="32" height="32" rx="6" fill="#8B4DF0"/>
<g clip-path="url(#clip0)">
<path d="M13.9691 22.5638C13.2772 22.5638 12.5651 22.5078 11.8486 22.3955C10.5868 22.1975 9.30945 21.5375 8.948 21.3398L8 20.8215L9.02637 20.484C10.1483 20.1151 10.8308 19.8862 11.6757 19.5278C10.8297 19.1181 10.1777 18.3812 9.86389 17.4286L9.62512 16.7037L9.82092 16.7336C9.63525 16.5465 9.48865 16.3565 9.375 16.1838C8.97083 15.5699 8.75684 14.8198 8.80237 14.177L8.84729 13.5443L9.22607 13.691C9.06628 13.3893 8.95081 13.067 8.88293 12.7292C8.71753 11.9055 8.85596 11.0304 9.27283 10.2651L9.60278 9.65941L10.0441 10.1894C11.4397 11.8659 13.2074 12.8605 15.3054 13.1516C15.2197 12.5609 15.2839 11.9908 15.4965 11.4798C15.7439 10.8849 16.1841 10.3804 16.769 10.0207C17.4187 9.62144 18.2065 9.42796 18.9874 9.47593C19.8159 9.52684 20.5681 9.83726 21.1655 10.3742C21.4573 10.2984 21.6722 10.2175 21.9628 10.1081C22.1376 10.0423 22.3358 9.96763 22.5839 9.88218L23.4979 9.56724L22.9019 11.2696C22.9412 11.2663 22.9817 11.2635 23.024 11.2617L24.0001 11.2175L23.4232 12.006C23.3901 12.0511 23.3817 12.0639 23.37 12.0816C23.3235 12.1517 23.2656 12.2389 22.4738 13.2962C22.2755 13.561 22.1765 13.9059 22.1949 14.2674C22.2651 15.6415 22.0966 16.8846 21.6936 17.9623C21.3125 18.9818 20.7219 19.8565 19.9385 20.5622C18.969 21.4353 17.7328 22.0331 16.264 22.3387C15.5436 22.4886 14.7699 22.5638 13.9691 22.5638Z" fill="#fff"/>
</g>
<defs>
<clipPath id="clip0">
<rect width="16.0001" height="16" fill="#8B4DF0" transform="translate(8 8)"/>
</clipPath>
</defs>
</svg>
